<?xml version="1.0" standalone="no"?>
<!DOCTYPE svg PUBLIC "-//W3C//DTD SVG 1.1//EN" "http://www.w3.org/Graphics/SVG/1.1/DTD/svg11.dtd" >
<svg xmlns="http://www.w3.org/2000/svg">
<metadata>
This is a custom SVG webfont generated by Font Squirrel.
Copyright   : Copyright 19901998 Bitstream Inc  All rights reserved
</metadata>
<defs>
<font id="ClarendonCnBTBold" horiz-adv-x="1024" >
<font-face units-per-em="2048" ascent="1556" descent="-492" />
<missing-glyph horiz-adv-x="473" />
<glyph unicode=" "  horiz-adv-x="473" />
<glyph unicode="&#x09;" horiz-adv-x="473" />
<glyph unicode="&#xa0;" horiz-adv-x="473" />
<glyph unicode="!" horiz-adv-x="598" d="M131 1235q0 116 45 183t123 67t123 -67t45 -183q0 -73 -50 -268t-50 -324v-264h-136v264q0 129 -50 324t-50 268zM147 133q0 62 45.5 107t106.5 45q63 0 107.5 -44t44.5 -106q0 -66 -43 -108.5t-109 -42.5q-63 0 -107.5 43.5t-44.5 105.5z" />
<glyph unicode="&#x22;" horiz-adv-x="694" d="M84 1354q0 52 24.5 80t69.5 28q47 0 71.5 -27.5t24.5 -80.5q0 -16 -0.5 -24.5t-1.5 -15.5l-73 -458h-39l-74 459q-1 7 -1.5 15.5t-0.5 23.5zM420 1354q0 51 25.5 79.5t70.5 28.5t70.5 -28t25.5 -78q0 -13 -3 -36q-1 -4 -1 -5l-73 -459h-39l-74 458q-1 8 -1.5 16.5 t-0.5 23.5z" />
<glyph unicode="#" horiz-adv-x="1575" d="M70 428l59 168h301l92 262h-319l61 166h318l155 436h183l-156 -436h268l156 436h182l-156 -436h291l-59 -166h-291l-92 -262h307l-59 -168h-307l-154 -434h-184l155 434h-268l-154 -434h-184l156 434h-301zM608 594h275l94 264h-275z" />
<glyph unicode="$" horiz-adv-x="948" d="M74 279q0 75 38 121t101 46q52 0 87.5 -34t35.5 -84t-28.5 -81.5t-74.5 -31.5h-16q21 -50 72.5 -78.5t128.5 -31.5v522q-175 92 -256.5 198t-81.5 238q0 153 90.5 260t247.5 139v103h104v-101q143 -16 225 -87t82 -177q0 -71 -35 -112t-96 -41q-54 0 -88.5 32t-34.5 82 q0 42 20 72.5t58 48.5q-29 26 -61 41.5t-70 22.5v-465q188 -100 270 -207.5t82 -251.5q0 -163 -95 -280t-257 -150v-164h-104v154q-160 13 -252 93t-92 204zM276 1141q0 -70 36 -120.5t116 -92.5v409q-73 -19 -112.5 -70.5t-39.5 -125.5zM514 113q72 23 112 81.5t40 143.5 q0 78 -36 137.5t-116 114.5v-477z" />
<glyph unicode="%" horiz-adv-x="1270" d="M47 1108q0 194 63 284.5t197 90.5q57 0 183.5 -41t195.5 -41q60 0 113 21t96 63h129l-633 -1518h-141l581 1387q-32 -17 -68.5 -25t-76.5 -8q-49 0 -89 8.5t-70 25.5q22 -46 32 -103.5t10 -143.5q0 -193 -63.5 -283t-198.5 -90t-197.5 90t-62.5 283zM225 1108 q0 -178 17.5 -221t64.5 -43q49 0 66.5 45t17.5 219q0 173 -18 218.5t-66 45.5q-47 0 -64.5 -43.5t-17.5 -220.5zM702 342q0 194 63 284.5t198 90.5q134 0 197 -90.5t63 -284.5t-63 -284.5t-197 -90.5q-135 0 -198 90.5t-63 284.5zM879 342q0 -179 17 -222.5t65 -43.5 t65.5 45t17.5 221q0 174 -17.5 219t-65.5 45t-65 -43.5t-17 -220.5z" />
<glyph unicode="&#x26;" horiz-adv-x="1290" d="M68 373q0 128 60.5 230.5t186.5 189.5q-48 101 -72 187t-24 159q0 158 89.5 252t238.5 94q127 0 204.5 -73.5t77.5 -194.5q0 -110 -67 -213.5t-213 -217.5q63 -125 131 -242t141 -227q29 73 43.5 143t14.5 138q0 60 -26 78.5t-120 20.5v122h406v-123q-112 0 -127 -118 q-2 -23 -4 -37q-17 -117 -40 -194t-59 -142q26 -24 51 -36.5t48 -12.5q52 0 77 48t25 150v80h109v-65q0 -210 -60.5 -307t-189.5 -97q-51 0 -97.5 22.5t-97.5 71.5q-57 -46 -129.5 -70t-155.5 -24q-184 0 -302.5 115.5t-118.5 292.5zM305 426q0 -125 74 -206t188 -81 q21 0 46 5t55 16q-56 64 -123 173.5t-160 291.5q-40 -50 -60 -99.5t-20 -99.5zM422 1194q0 -48 14.5 -110.5t44.5 -143.5q74 69 110 140t36 147q0 60 -26.5 92.5t-76.5 32.5q-48 0 -75 -42t-27 -116z" />
<glyph unicode="'" horiz-adv-x="358" d="M84 1354q0 52 24.5 80t69.5 28q47 0 71.5 -27.5t24.5 -80.5q0 -16 -0.5 -24.5t-1.5 -15.5l-73 -458h-39l-74 459q-1 7 -1.5 15.5t-0.5 23.5z" />
<glyph unicode="(" horiz-adv-x="702" d="M119 670q0 340 137 559.5t371 255.5v-115q-127 -38 -184.5 -202.5t-57.5 -497.5q0 -343 57 -507.5t185 -201.5v-113q-235 37 -371.5 256.5t-136.5 565.5z" />
<glyph unicode=")" horiz-adv-x="702" d="M76 -39q127 38 184 203t57 498q0 339 -57 505t-184 203v115q235 -36 372.5 -257.5t137.5 -565.5q0 -340 -138 -558.5t-372 -255.5v113z" />
<glyph unicode="*" horiz-adv-x="883" d="M53 891q0 38 28 62t88 38q13 3 36 7q97 18 147 57q-50 37 -146 54q-25 5 -36 7q-61 14 -89 38.5t-28 62.5q0 41 26.5 70.5t63.5 29.5q49 0 124 -80t130 -113v13q0 64 -25.5 148.5t-25.5 111.5q0 40 25.5 64t68.5 24q44 0 69.5 -25.5t25.5 -70.5q0 -29 -27 -108.5 t-27 -135.5v-21q57 31 132 112t124 81q37 0 63.5 -30t26.5 -70q0 -38 -28 -62.5t-89 -38.5q-13 -3 -41 -8q-101 -18 -145 -55q51 -37 151 -55q22 -4 34 -7q61 -14 89.5 -38.5t28.5 -61.5q0 -40 -26.5 -70t-63.5 -30q-48 0 -122 78.5t-134 109.5v-12q0 -56 27 -139.5 t27 -116.5q0 -40 -25.5 -63t-69.5 -23t-69 24.5t-25 69.5q0 23 25.5 105t25.5 145v12q-49 -16 -111 -89q-23 -27 -36 -40q-35 -35 -59 -48t-50 -13q-36 0 -62 29.5t-26 70.5z" />
<glyph unicode="+" horiz-adv-x="1706" d="M254 528v166h514v527h170v-527h514v-166h-514v-528h-170v528h-514z" />
<glyph unicode="," horiz-adv-x="473" d="M59 -172q61 35 106 76.5t75 89.5h-21q-70 0 -108.5 36.5t-38.5 102.5q0 72 45 120t114 48q78 0 122 -53.5t44 -147.5q0 -116 -71.5 -215.5t-202.5 -165.5z" />
<glyph unicode="-" horiz-adv-x="639" d="M82 451v227h475v-227h-475z" />
<glyph unicode="." horiz-adv-x="473" d="M78 143q0 63 48 110.5t112 47.5q65 0 112 -46.5t47 -111.5q0 -69 -45.5 -114t-113.5 -45q-67 0 -113.5 46t-46.5 113z" />
<glyph unicode="/" horiz-adv-x="569" d="M-57 -190l481 1675h147l-479 -1675h-149z" />
<glyph unicode="0" horiz-adv-x="948" d="M88 725q0 245 20.5 382.5t65.5 211.5q51 83 124.5 123.5t174.5 40.5q102 0 176 -40.5t125 -123.5q46 -73 66 -210t20 -384t-20 -385t-66 -211q-50 -81 -125.5 -121.5t-175.5 -40.5t-174 40.5t-125 121.5q-45 74 -65.5 212t-20.5 384zM354 723q0 -390 25.5 -499t93.5 -109 q69 0 95 102.5t26 505.5q0 406 -26 509t-95 103q-68 0 -93.5 -110t-25.5 -502z" />
<glyph unicode="1" horiz-adv-x="948" d="M217 0v147h47q51 0 72.5 23t21.5 76v938h-141v145h35q102 0 160.5 37t85.5 119h108v-1239q0 -54 21.5 -76.5t72.5 -22.5h31v-147h-514z" />
<glyph unicode="2" horiz-adv-x="948" d="M27 0v47q0 132 32 242.5t97 202.5q57 82 179 198q36 33 52 49q120 120 163.5 200t43.5 167q0 108 -53.5 170.5t-145.5 62.5q-73 0 -124 -37.5t-72 -107.5q17 14 33 20.5t32 6.5q57 0 92 -36.5t35 -94.5q0 -70 -43.5 -113t-114.5 -43q-78 0 -124 53t-46 143 q0 156 109 255.5t283 99.5q182 0 286.5 -102t104.5 -279q0 -81 -27.5 -156.5t-79.5 -136.5q-68 -81 -216 -193l-50 -38q-150 -118 -204.5 -191.5t-78.5 -163.5q41 28 79.5 42t76.5 14q44 0 120 -22.5t107 -22.5q78 0 112 54.5t36 182.5h115v-88q0 -210 -63.5 -315 t-190.5 -105q-44 0 -86 15t-113 59l-29 18q-74 49 -114 49t-65.5 -27.5t-33.5 -78.5h-114z" />
<glyph unicode="3" horiz-adv-x="948" d="M31 307q0 91 47 148t121 57q62 0 103.5 -43t41.5 -109q0 -58 -33 -95.5t-84 -37.5q-7 0 -31 6q-7 2 -12 3q15 -51 65 -83t116 -32q98 0 155.5 74.5t57.5 203.5q0 139 -64 211t-186 72h-15v129q135 0 201 72t66 219q0 110 -53.5 171.5t-147.5 61.5q-61 0 -102.5 -29.5 t-50.5 -80.5q16 5 26 7.5t16 2.5q45 0 77 -37t32 -92q0 -62 -38.5 -103.5t-96.5 -41.5q-71 0 -116.5 52.5t-45.5 135.5q0 144 105 240t264 96q172 0 279.5 -103.5t107.5 -267.5q0 -138 -65.5 -228t-199.5 -136q138 -33 210.5 -123.5t72.5 -231.5q0 -190 -123 -309t-321 -119 q-164 0 -271.5 97t-107.5 243z" />
<glyph unicode="4" horiz-adv-x="948" d="M6 344v121l508 985h225v-954h185v-152h-185v-98q0 -53 22.5 -76t74.5 -23h30v-147h-530v147h70q50 0 72 23t22 76v98h-494zM176 496h324v645z" />
<glyph unicode="5" horiz-adv-x="948" d="M74 307q0 90 48 147.5t122 57.5q62 0 102.5 -43t40.5 -109q0 -58 -32 -95.5t-83 -37.5q-7 0 -31 6q-7 2 -12 3q19 -57 63 -87t107 -30q107 0 158 87.5t51 272.5q0 160 -50 247t-142 87q-72 0 -119.5 -50t-63.5 -142h-120q2 75 3 163.5t1 262.5q0 173 -1 259t-3 158 q88 -13 162 -19.5t139 -6.5q205 0 365 44q17 5 20 5q6 0 11 -6.5t5 -14.5q0 -31 -27 -88.5t-63 -91.5q-37 -34 -106 -49.5t-187 -15.5q-41 0 -86 1.5t-96 3.5v-362q46 62 108 92.5t140 30.5q172 0 273 -131.5t101 -355.5q0 -247 -112.5 -390t-304.5 -143q-165 0 -273 97 t-108 243z" />
<glyph unicode="6" horiz-adv-x="948" d="M74 655q0 420 109.5 624t334.5 204q150 0 244 -84.5t94 -216.5q0 -86 -42 -138.5t-109 -52.5t-106.5 37t-39.5 98q0 64 34.5 99t98.5 35h10q-15 40 -52.5 61.5t-92.5 21.5q-116 0 -166.5 -105t-50.5 -357v-72q49 46 101.5 68t113.5 22q155 0 238.5 -114.5t83.5 -325.5 q0 -233 -105.5 -362.5t-294.5 -129.5q-207 0 -305 167.5t-98 520.5zM346 436q0 -167 30.5 -234t102.5 -67q73 0 104 68t31 233t-30.5 232t-104.5 67q-72 0 -102.5 -66t-30.5 -233z" />
<glyph unicode="7" horiz-adv-x="948" d="M100 979v471h146v-86q48 50 100 75t107 25q69 0 162.5 -41t121.5 -41q36 0 54 17t18 51h123v-8q0 -84 -139 -352q-76 -145 -117 -232q-74 -154 -109 -323.5t-35 -382.5q0 -26 1 -57l3 -95h-300q0 9 -1.5 26.5t-1.5 26.5q0 246 117.5 532.5t380.5 676.5 q-37 -20 -84.5 -29.5t-111.5 -9.5q-36 0 -91 4t-73 4q-70 0 -97.5 -38t-27.5 -138v-76h-146z" />
<glyph unicode="8" horiz-adv-x="948" d="M43 354q0 131 66 229t198 162q-106 79 -156.5 166t-50.5 193q0 164 112 272.5t282 108.5q162 0 260 -93.5t98 -250.5q0 -108 -53.5 -191t-161.5 -143q136 -88 202 -191.5t66 -228.5q0 -181 -122.5 -300.5t-311.5 -119.5q-195 0 -311.5 105.5t-116.5 281.5zM274 342 q0 -100 50 -160.5t131 -60.5q78 0 129 62t51 157q0 86 -48 164t-147 151q-79 -53 -122.5 -134.5t-43.5 -178.5zM346 1153q0 -74 40 -135.5t122 -114.5q71 40 105 101t34 147q0 82 -40.5 132t-106.5 50q-69 0 -111.5 -49.5t-42.5 -130.5z" />
<glyph unicode="9" horiz-adv-x="948" d="M68 979q0 241 104 372.5t295 131.5q207 0 305 -168t98 -520q0 -423 -109 -626.5t-335 -203.5q-150 0 -244 84.5t-94 216.5q0 86 42 138.5t110 52.5q66 0 105.5 -37t39.5 -98q0 -64 -34.5 -98t-98.5 -34h-10q15 -40 52.5 -62t92.5 -22q117 0 167 105.5t50 357.5v72 q-49 -46 -101.5 -68t-113.5 -22q-152 0 -236.5 112.5t-84.5 315.5zM330 1014q0 -168 30 -234.5t103 -66.5t104 67.5t31 233.5q0 165 -31 233t-104 68t-103 -67t-30 -234z" />
<glyph unicode=":" horiz-adv-x="522" d="M100 143q0 62 49 110t113 48q66 0 112 -46t46 -112q0 -69 -44.5 -114t-113.5 -45q-67 0 -114.5 46.5t-47.5 112.5zM100 754q0 61 49 108t113 47q66 0 112 -45.5t46 -109.5q0 -71 -44.5 -116.5t-113.5 -45.5q-67 0 -114.5 47.5t-47.5 114.5z" />
<glyph unicode=";" horiz-adv-x="522" d="M84 -172q59 34 103.5 75.5t74.5 90.5h-20q-71 0 -109.5 36.5t-38.5 102.5q0 72 45.5 120t114.5 48q77 0 122.5 -54t45.5 -147q0 -115 -72.5 -215t-204.5 -166zM100 754q0 61 49 108t113 47q66 0 112 -45.5t46 -109.5q0 -71 -44.5 -116.5t-113.5 -45.5q-67 0 -114.5 47.5 t-47.5 114.5z" />
<glyph unicode="&#x3c;" horiz-adv-x="1706" d="M264 530v160l1178 486v-185l-934 -381l934 -381v-182z" />
<glyph unicode="=" horiz-adv-x="1706" d="M254 322v165h1198v-165h-1198zM254 733v168h1198v-168h-1198z" />
<glyph unicode="&#x3e;" horiz-adv-x="1706" d="M264 47v182l934 381l-934 381v185l1178 -486v-160z" />
<glyph unicode="?" horiz-adv-x="858" d="M39 1163q0 138 103.5 230t258.5 92q174 0 276.5 -92.5t102.5 -247.5q0 -72 -22 -131t-66 -103q-41 -41 -99.5 -84.5t-68.5 -52.5q-53 -50 -71.5 -101.5t-18.5 -180.5v-113h-135v184q0 120 13 185t42 114q21 33 65 91q95 126 95 208q0 78 -47.5 127t-122.5 49 q-55 0 -94 -20.5t-61 -60.5q4 0 10.5 0.5t19.5 0.5q60 0 96.5 -35t36.5 -94q0 -65 -42.5 -107t-108.5 -42q-72 0 -117 50.5t-45 133.5zM215 133q0 62 45 107t107 45t106.5 -44t44.5 -106q0 -66 -43 -108.5t-108 -42.5q-63 0 -107.5 43.5t-44.5 105.5z" />
<glyph unicode="@" horiz-adv-x="2019" d="M139 537q0 203 86 381t250 313q135 111 297.5 168t345.5 57q348 0 557 -188.5t209 -501.5q0 -159 -59 -297.5t-168 -237.5q-62 -54 -129 -82t-133 -28q-98 0 -152.5 52.5t-60.5 152.5q-64 -105 -137.5 -154t-165.5 -49q-134 0 -212.5 92t-78.5 248q0 112 49 219t141 195 q68 65 147.5 99t161.5 34q90 0 145.5 -47.5t72.5 -139.5l51 170h172l-172 -616l-2 -6q-15 -59 -15 -90q0 -49 22 -76t60 -27q34 0 84 22t92 56q110 88 169 222t59 296q0 279 -191 450t-504 171q-173 0 -328.5 -65t-273.5 -185q-122 -125 -183.5 -286t-61.5 -357 q0 -172 59.5 -306.5t179.5 -234.5q106 -88 247 -135t302 -47q166 0 321 51.5t304 157.5l37 -47q-148 -111 -315 -167.5t-347 -56.5q-188 0 -347 46.5t-275 134.5q-151 113 -230.5 277t-79.5 362zM772 367q0 -83 36.5 -133t94.5 -50q62 0 115.5 41.5t107.5 132.5 q56 96 89.5 210t33.5 204q0 83 -37.5 132.5t-99.5 49.5q-64 0 -117 -45t-106 -147q-57 -107 -87 -209.5t-30 -185.5z" />
<glyph unicode="A" d="M2 0v170h18q47 0 63 13t24 53l274 1214h295l248 -1225q6 -31 22 -44t49 -13q4 0 13 1t14 1v-170h-510v170q60 0 82 11t22 40q0 4 -1 10t-1 9l-26 192h-254l-43 -194q-1 -3 -1.5 -7t-0.5 -10q0 -25 17 -39t48 -14q11 0 17 0.5t10 0.5v-169h-379zM365 592h202l-88 549z" />
<glyph unicode="B" horiz-adv-x="1069" d="M57 0l1 170q60 2 82 22.5t22 77.5v910q0 57 -22 77.5t-83 23.5v169h435q259 0 373 -82t114 -266q0 -142 -61 -225.5t-187 -112.5q132 -23 201 -116t69 -247q0 -197 -103.5 -299t-305.5 -102h-535zM451 174h73q99 0 142 57.5t43 190.5t-43.5 191.5t-141.5 58.5h-73v-498z M451 834h69q93 0 133.5 52t40.5 171q0 118 -40.5 170.5t-133.5 52.5h-69v-446z" />
<glyph unicode="C" horiz-adv-x="934" d="M61 709q0 376 103.5 576t298.5 200q70 0 125 -29.5t98 -89.5l31 84h127v-555h-154q-10 217 -49.5 309t-120.5 92q-88 0 -121.5 -121t-33.5 -530q0 -313 33.5 -406.5t121.5 -93.5q86 0 123 80.5t37 274.5q0 44 -0.5 68.5t-1.5 47.5h174v-137q0 -267 -89.5 -389.5 t-283.5 -122.5q-215 0 -316.5 179.5t-101.5 562.5z" />
<glyph unicode="D" horiz-adv-x="1053" d="M66 0v170q57 0 80.5 22.5t23.5 77.5v910q0 55 -23.5 77.5t-80.5 22.5v170h331q170 0 258.5 -19t151.5 -63q100 -70 142 -211.5t42 -431.5t-43.5 -430t-146.5 -211q-66 -45 -155.5 -64.5t-239.5 -19.5h-340zM453 170h45q60 0 95.5 13.5t55.5 43.5q30 43 41.5 131.5 t11.5 366.5t-11.5 366.5t-41.5 131.5q-20 30 -55.5 43.5t-95.5 13.5h-45v-1110z" />
<glyph unicode="E" horiz-adv-x="1057" d="M57 0l1 170q60 2 82 22.5t22 77.5v910q0 57 -22 77.5t-83 23.5v169h916v-489h-148q-9 185 -68 252t-208 67h-98v-451h10q75 0 105 43.5t34 163.5h131v-575h-131q-2 124 -32 169.5t-107 45.5h-10v-506h98q160 0 218 80t58 315h148v-565h-916z" />
<glyph unicode="F" horiz-adv-x="1006" d="M57 0l1 170q60 2 82 22.5t22 77.5v910q0 57 -22 77.5t-83 23.5v169h916v-504h-147q-5 203 -58.5 268.5t-218.5 65.5h-98v-451h22q77 0 108 44.5t34 162.5h130v-575h-130q-2 123 -33 169t-109 46h-22v-406q0 -58 23 -79t87 -21h12v-170h-516z" />
<glyph unicode="G" horiz-adv-x="1049" d="M61 709q0 377 106 576.5t304 199.5q67 0 126.5 -29t117.5 -90l33 84h124v-555h-151q-10 214 -54.5 307.5t-136.5 93.5q-95 0 -130 -110t-35 -537q0 -312 29.5 -400.5t109.5 -88.5q62 0 94.5 49.5t32.5 144.5v131q0 53 -23 77t-73 24h-50v170h506v-170q-54 -4 -75 -26 t-21 -75v-485h-133l-51 98q-65 -68 -130.5 -99.5t-142.5 -31.5q-189 0 -283 184t-94 558z" />
<glyph unicode="H" horiz-adv-x="1147" d="M57 0l1 170q60 2 82 22.5t22 77.5v910q0 57 -22 77.5t-83 23.5v169h490v-170q-53 -3 -73.5 -25t-20.5 -75v-340h243v340q0 53 -20.5 75t-73.5 26v169h488v-170q-60 -2 -82.5 -24t-22.5 -76v-910q0 -55 23.5 -77.5t81.5 -22.5v-170h-488v169q52 4 73 26t21 75v389h-243 v-389q0 -53 21 -75t73 -26v-169h-490z" />
<glyph unicode="I" horiz-adv-x="635" d="M63 0l1 170q59 1 81.5 22t22.5 78v910q0 57 -22 77.5t-83 23.5v169h500v-170q-59 -2 -80.5 -23.5t-21.5 -76.5v-910q0 -56 22.5 -78t79.5 -22v-170h-500z" />
<glyph unicode="J" horiz-adv-x="758" d="M2 217q0 75 40.5 122.5t102.5 47.5q59 0 93 -38t34 -103q0 -49 -27.5 -81.5t-74.5 -39.5q12 -11 26.5 -16t32.5 -5q52 0 79.5 31.5t27.5 89.5q0 57 -9.5 130.5t-9.5 88.5v15q-4 57 -4 110v611q0 58 -22.5 79t-81.5 21h-47v170h536v-170q-52 -3 -73 -25t-21 -75v-488 q0 -102 2 -219.5t2 -132.5q0 -177 -86 -275t-239 -98q-127 0 -204 68.5t-77 181.5z" />
<glyph unicode="K" horiz-adv-x="1147" d="M57 0l1 170q60 2 82 22.5t22 77.5v910q0 57 -22 77.5t-83 23.5v169h484v-170q-53 -3 -75 -25.5t-22 -74.5v-447l261 472q4 6 7 15.5t3 18.5q0 21 -17.5 30t-64.5 12v169h428v-170h-45q-47 0 -69.5 -12.5t-43.5 -46.5l-180 -320l303 -641q24 -51 49.5 -69t71.5 -22v-169 h-512v170q50 0 70 11.5t20 39.5q0 8 -2.5 18.5t-7.5 20.5l-160 346l-111 -172v-164q0 -52 22 -74.5t75 -26.5v-169h-484z" />
<glyph unicode="L" horiz-adv-x="991" d="M57 0l1 170q60 2 82 22.5t22 77.5v910q0 57 -22 77.5t-83 23.5v169h512v-170h-14q-60 0 -82 -21t-22 -79v-1010h73q161 0 219 80t58 315h145v-565h-889z" />
<glyph unicode="M" horiz-adv-x="1384" d="M53 0l1 170q60 2 82 22.5t22 77.5v910q0 57 -22 77.5t-83 23.5v169h488l145 -907l162 907h475v-170q-60 -2 -82 -24t-22 -76v-910q0 -55 23 -77.5t81 -22.5v-170h-453l1 170q52 3 73 25t21 75v969l-236 -1239h-174l-227 1239v-969q0 -52 21.5 -74.5t74.5 -26.5v-169h-371 z" />
<glyph unicode="N" horiz-adv-x="1139" d="M57 0l1 170q60 2 82 22.5t22 77.5v910q0 57 -22 77.5t-83 23.5v169h404l332 -932v662q0 55 -23.5 77.5t-81.5 22.5v170h402v-170q-61 -2 -83 -22.5t-22 -77.5v-1180h-268l-365 1028v-758q0 -55 23.5 -77.5t81.5 -22.5v-170h-400z" />
<glyph unicode="O" horiz-adv-x="977" d="M61 725q0 245 23 382.5t74 213.5q55 83 137 123.5t194 40.5t193.5 -40.5t136.5 -123.5q51 -76 73.5 -213t22.5 -383q0 -244 -22.5 -381t-73.5 -213q-55 -83 -136.5 -123.5t-193.5 -40.5t-194 40.5t-137 123.5q-51 76 -74 213t-23 381zM360 725q0 -385 28 -481.5 t101 -96.5t100 97t27 481q0 385 -27 482.5t-100 97.5t-101 -97.5t-28 -482.5z" />
<glyph unicode="P" horiz-adv-x="1038" d="M57 0l1 170q60 2 82 22.5t22 77.5v910q0 57 -22 77.5t-83 23.5v169h435q279 0 388 -93t109 -323q0 -203 -101.5 -298t-320.5 -95q-27 0 -56 1.5t-60 4.5v-377q0 -58 22 -79t82 -21h29v-170h-527zM451 817h73q98 0 141.5 54.5t43.5 177.5t-43.5 177t-141.5 54h-73v-463z " />
<glyph unicode="Q" horiz-adv-x="1028" d="M61 725q0 245 23 382.5t74 213.5q55 83 137 123.5t194 40.5t193.5 -40.5t136.5 -123.5q51 -76 73.5 -213t22.5 -383q0 -289 -31.5 -430t-107.5 -215q19 -19 38 -28t40 -9q44 0 61 34.5t23 182.5h92v-47q0 -198 -55.5 -290.5t-173.5 -92.5q-75 0 -124.5 36t-80.5 114 q-41 -7 -70.5 -10t-50.5 -3q-101 0 -182 42t-135 122q-51 77 -74 213.5t-23 380.5zM360 725q0 -147 3 -245.5t10 -178.5q19 38 46.5 57t63.5 19q41 0 72 -20t47 -56q8 64 11 147t3 277q0 385 -27 482.5t-100 97.5t-101 -97.5t-28 -482.5zM414 211q0 -37 28.5 -53.5 t94.5 -16.5h26q-11 63 -35 95t-61 32q-25 0 -39 -15.5t-14 -41.5z" />
<glyph unicode="R" horiz-adv-x="1145" d="M57 0l1 170q60 2 82 22.5t22 77.5v910q0 57 -22 77.5t-83 23.5v169h435q275 0 391 -93t116 -308q0 -157 -74.5 -241.5t-222.5 -94.5q115 -27 165 -96t59 -222q1 -23 3 -65q8 -162 50 -162q28 0 41.5 33t13.5 100q0 7 -1 22t-1 23h111v-22q0 -186 -55.5 -266.5 t-182.5 -80.5q-136 0 -194.5 89t-63.5 315v8q-6 270 -133 270h-63v-389q0 -57 21.5 -77.5t82.5 -23.5v-169h-498zM451 827h77q104 0 150.5 53.5t46.5 174.5q0 119 -46 172t-151 53h-77v-453z" />
<glyph unicode="S" horiz-adv-x="981" d="M47 1100q0 165 101 275t251 110q96 0 165.5 -30t125.5 -95l53 90h119v-541h-151q-12 194 -79 301t-175 107q-66 0 -105 -37.5t-39 -99.5q0 -97 214 -243l22 -15q229 -157 303 -270t74 -267q0 -192 -102 -306t-273 -114q-88 0 -160 34t-129 101l-57 -100h-121v614h152 q13 -217 93.5 -346t200.5 -129q65 0 104.5 41.5t39.5 110.5q0 73 -37 130.5t-125 121.5l-105 75q-141 100 -178 134q-105 96 -143.5 172t-38.5 176z" />
<glyph unicode="T" horiz-adv-x="1042" d="M39 891v559h956v-559h-141q-4 253 -44.5 326.5t-147.5 78.5v-1026q0 -58 22 -79t82 -21h41v-170h-580v170h39q60 0 82.5 21t22.5 79v1026q-109 -5 -150 -81t-43 -324h-139z" />
<glyph unicode="U" horiz-adv-x="1057" d="M45 1281v169h492v-170q-53 -3 -75 -25.5t-22 -74.5v-805q0 -141 30.5 -185.5t107.5 -44.5q80 0 113.5 52.5t33.5 187.5v795q0 53 -21 75t-73 26v169h383v-170q-60 -2 -82.5 -24t-22.5 -76v-779q0 -137 -16 -199.5t-53 -111.5q-46 -60 -123.5 -91.5t-177.5 -31.5 q-218 0 -303.5 98.5t-85.5 362.5v752q0 57 -22 77.5t-83 23.5z" />
<glyph unicode="V" horiz-adv-x="1014" d="M8 1280v170h510v-170q-60 0 -82 -11t-22 -40q0 -3 1 -9.5t1 -9.5l133 -862l168 863q1 4 1.5 8t0.5 12q0 25 -20 36t-70 14v169h379v-170h-19q-46 0 -62 -12t-24 -52l-260 -1216h-289l-248 1227q-6 30 -22.5 42.5t-48.5 12.5q-4 0 -12.5 -1t-14.5 -1z" />
<glyph unicode="W" horiz-adv-x="1479" d="M6 1280v170h463v-170q-52 -2 -70 -13t-18 -38q0 -8 0.5 -11.5t1.5 -7.5l125 -837l125 838q1 3 1.5 7t0.5 11q0 27 -18.5 38t-71.5 14v169h479v-170q-52 -2 -70 -13t-18 -40q0 -2 1 -8t1 -9l111 -837l139 837q0 4 1 10t1 9q0 27 -19.5 38t-72.5 14v169h381v-170h-19 q-47 0 -63.5 -12.5t-24.5 -51.5l-237 -1216h-271l-114 954l-150 -954h-274l-224 1227q-4 29 -20 42t-49 13q-4 0 -12.5 -1t-14.5 -1z" />
<glyph unicode="X" horiz-adv-x="1028" d="M-4 0v170h43q74 0 115 76l2 4l237 448l-217 504q-19 45 -42.5 62.5t-61.5 17.5q-4 0 -11.5 -1t-11.5 -1v170h481v-170q-38 -3 -55.5 -13t-17.5 -28q0 -8 2 -16t6 -17l90 -217l102 217q4 8 6.5 16t2.5 15q0 19 -18 29.5t-56 14.5v169h401v-170q-5 0 -15 1t-13 1 q-39 0 -61 -14t-48 -66l-215 -407l238 -545q19 -46 43.5 -64t64.5 -18q12 0 18 0.5t10 1.5l1 -170h-522v170q57 0 81.5 10t24.5 33q0 7 -6 25l-2 6l-107 262l-131 -262q-4 -8 -6 -16t-2 -15q0 -21 21 -31t67 -12v-170h-438z" />
<glyph unicode="Y" horiz-adv-x="963" d="M8 1280v170h488v-170q-43 -2 -63.5 -14t-20.5 -35q0 -6 2 -15l2 -6l121 -379l114 379l2 6q2 9 2 15q0 24 -23 36.5t-69 12.5v170h393v-170h-22q-36 0 -52 -11t-30 -52l-219 -605v-342q0 -53 22.5 -76.5t73.5 -23.5h43v-170h-567v170h31q60 0 83 21t23 79v342l-231 615 q-14 33 -30 44t-46 11q-4 0 -12.5 -1t-14.5 -1z" />
<glyph unicode="Z" horiz-adv-x="963" d="M39 0v145l549 1135h-35q-180 0 -254 -86t-76 -299h-151v555h823v-162l-544 -1118q10 -1 24.5 -1.5t40.5 -0.5q188 0 263 88.5t75 310.5v41h153v-608h-868z" />
<glyph unicode="[" horiz-adv-x="702" d="M190 -119v1569h437v-123h-199v-1323h199v-123h-437z" />
<glyph unicode="\" horiz-adv-x="569" d="M-57 1485h149l479 -1675h-147z" />
<glyph unicode="]" horiz-adv-x="702" d="M70 6h198v1321h-198v123h438v-1569h-438v125z" />
<glyph unicode="^" horiz-adv-x="2048" d="M412 897l503 565h215l502 -565h-104l-506 397l-506 -397h-104z" />
<glyph unicode="_" d="M0 -311h1024v-172h-1024v172z" />
<glyph unicode="`" d="M180 1530q0 46 32 77t79 31q36 0 70 -20.5t85 -75.5l279 -295h-115l-325 162q-56 28 -80.5 56.5t-24.5 64.5z" />
<glyph unicode="a" horiz-adv-x="1034" d="M53 246q0 113 60 188t233 160q148 72 188.5 121.5t40.5 126.5q0 74 -46 118t-123 44q-51 0 -90.5 -16.5t-67.5 -49.5q2 0 5 1q19 3 28 3q56 0 91.5 -37.5t35.5 -97.5q0 -62 -42.5 -101.5t-109.5 -39.5q-74 0 -119 45.5t-45 122.5q0 133 103.5 217t271.5 84 q121 0 201.5 -37t128.5 -113q18 -29 26 -85t8 -165v-538q0 -37 7 -49.5t24 -12.5q25 0 35 29t10 108v47h99v-79q0 -138 -55 -204.5t-169 -66.5q-76 0 -122.5 39.5t-67.5 122.5q-44 -81 -110 -121.5t-152 -40.5q-128 0 -202.5 75t-74.5 202zM322 283q0 -55 29 -87t77 -32 q71 0 106 65t35 195v145q-160 -106 -203.5 -162t-43.5 -124z" />
<glyph unicode="b" horiz-adv-x="930" d="M16 1305v145h361v-442q44 64 95.5 95.5t113.5 31.5q134 0 210 -154t76 -428q0 -282 -88 -433t-252 -151q-79 0 -138 39.5t-101 120.5l-60 -129h-145q11 64 17 118.5t6 92.5v1003q0 35 -4 50.5t-13 23.5q-7 7 -25 11t-53 6zM375 547q0 -242 25.5 -321t91.5 -79 q65 0 90.5 78.5t25.5 321.5q0 242 -25.5 320.5t-90.5 78.5q-66 0 -91.5 -78.5t-25.5 -320.5z" />
<glyph unicode="c" horiz-adv-x="848" d="M59 545q0 291 102 440.5t302 149.5q145 0 232 -89.5t87 -238.5q0 -95 -42 -147t-119 -52q-67 0 -107.5 39.5t-40.5 104.5q0 64 32 101.5t87 37.5h8q0 46 -27 72t-73 26q-90 0 -129 -104t-39 -346q0 -229 32 -315.5t111 -86.5q60 0 90.5 48.5t30.5 144.5v129h186v-82 q0 -213 -78 -310.5t-247 -97.5q-205 0 -301.5 139.5t-96.5 436.5z" />
<glyph unicode="d" horiz-adv-x="952" d="M57 551q0 282 78 433t223 151q63 0 112.5 -28.5t82.5 -82.5v190q0 56 -15.5 73.5t-56.5 17.5h-45v145h383v-1214q0 -58 15 -72.5t63 -16.5v-147h-336v106q-50 -70 -102.5 -103.5t-114.5 -33.5q-135 0 -211 153.5t-76 428.5zM319 559q0 -242 26 -320.5t91 -78.5 q66 0 91.5 78.5t25.5 320.5t-25.5 320.5t-91.5 78.5q-65 0 -91 -78.5t-26 -320.5z" />
<glyph unicode="e" horiz-adv-x="883" d="M57 559q0 279 103 427.5t297 148.5q171 0 263.5 -118.5t92.5 -338.5v-162h-481v-63q0 -162 39 -239t121 -77q62 0 96.5 52.5t34.5 150.5v100h190v-63q0 -208 -83.5 -308t-256.5 -100q-214 0 -315 143t-101 447zM332 678h227v33q0 161 -23 219.5t-81 58.5q-64 0 -92 -69 t-31 -242z" />
<glyph unicode="f" horiz-adv-x="563" d="M31 958v146h104q-1 9 -1.5 19t-0.5 30q0 158 73 243t210 85q110 0 173.5 -50.5t63.5 -136.5q0 -59 -31.5 -94t-84.5 -35q-47 0 -75 27t-28 72q0 35 21 61.5t59 40.5q-9 10 -20 14t-31 4q-47 0 -77 -38t-30 -99q0 -30 8.5 -65.5t24.5 -77.5h156v-146h-146v-722 q0 -59 17.5 -74t81.5 -15h43v-147h-502v147q61 0 78.5 15.5t17.5 73.5v722h-104z" />
<glyph unicode="g" horiz-adv-x="948" d="M37 -180q0 59 42 99.5t126 62.5q-77 21 -115.5 65.5t-38.5 112.5q0 66 37.5 128.5t114.5 123.5q-53 40 -80 118t-27 189q0 188 97.5 303t255.5 115q47 0 86.5 -7.5t74.5 -23.5q46 75 100.5 111t123.5 36q70 0 114.5 -43.5t44.5 -111.5q0 -62 -26.5 -95.5t-75.5 -33.5 q-46 0 -72 29t-26 81q0 23 9.5 41.5t32.5 40.5q-43 -3 -76.5 -29.5t-64.5 -82.5q60 -45 87.5 -123.5t27.5 -202.5q0 -186 -97.5 -296t-260.5 -110q-40 0 -79 9t-79 26q-15 -15 -23 -30.5t-8 -30.5q0 -67 220 -81l50 -3q244 -19 323 -77t79 -191q0 -158 -126.5 -244 t-356.5 -86q-191 0 -302.5 57.5t-111.5 153.5zM256 -147q0 -57 56.5 -85t170.5 -28q108 0 179 35t71 84q0 62 -214 78q-120 9 -197 18q-33 -26 -49.5 -52t-16.5 -50zM354 727q0 -141 22 -193.5t77 -52.5q54 0 76 52.5t22 193.5q0 142 -21.5 194t-76.5 52q-56 0 -77.5 -50.5 t-21.5 -195.5z" />
<glyph unicode="h" horiz-adv-x="995" d="M31 0v147q60 0 77 15t17 74v978q0 35 -4 51t-12 23q-7 7 -25.5 11t-52.5 6v145h360v-473q46 82 107.5 121t144.5 39q119 0 175 -79.5t56 -248.5v-573q0 -60 17.5 -74.5t77.5 -14.5v-147h-432v147q44 3 57.5 18.5t13.5 70.5v581q0 57 -19 84t-59 27q-62 0 -100.5 -61.5 t-38.5 -164.5v-466q0 -56 14 -71t58 -18v-147h-432z" />
<glyph unicode="i" horiz-adv-x="514" d="M31 0v147h16q56 0 72 15.5t16 73.5v632q0 60 -18 75t-86 15v146h368v-868q0 -59 18 -74t89 -15v-147h-475zM102 1325q0 63 46.5 109.5t109.5 46.5t109.5 -45.5t46.5 -108.5q0 -69 -44 -113.5t-112 -44.5q-65 0 -110.5 45.5t-45.5 110.5z" />
<glyph unicode="j" horiz-adv-x="571" d="M-86 -172q0 74 38 118t101 44q55 0 86 -31t31 -86q0 -52 -24.5 -79.5t-75.5 -33.5q12 -12 26.5 -18t32.5 -6q50 0 76 31.5t26 91.5q0 26 -16 152.5t-16 228.5v628q0 58 -18.5 74t-78.5 16h-43v146h404v-772q0 -89 5 -212t5 -157q0 -170 -79.5 -262t-225.5 -92 q-110 0 -182 62.5t-72 156.5zM160 1325q0 63 46 109.5t109 46.5q64 0 110 -45.5t46 -108.5q0 -69 -44 -113.5t-112 -44.5q-65 0 -110 45.5t-45 110.5z" />
<glyph unicode="k" horiz-adv-x="1010" d="M31 0v147q60 0 77 15t17 74v978q0 60 -17.5 75.5t-76.5 15.5v145h360v-868l203 309q6 9 9 16.5t3 12.5q0 18 -22.5 27.5t-67.5 11.5v145h420v-146h-41q-34 0 -62.5 -15.5t-52.5 -47.5l-129 -172l256 -520q14 -28 34.5 -40t64.5 -16v-147h-455v147q32 0 48.5 6.5 t16.5 18.5q0 18 -2.5 30.5t-7.5 23.5l-121 261l-94 -135v-116q0 -56 14 -71t58 -18v-147h-432z" />
<glyph unicode="l" horiz-adv-x="498" d="M23 0v147q59 0 76.5 15t17.5 74v978q0 60 -17.5 75.5t-76.5 15.5v145h360v-1214q0 -60 17 -74.5t77 -14.5v-147h-454z" />
<glyph unicode="m" horiz-adv-x="1489" d="M39 0v147q61 0 78.5 15.5t17.5 73.5v632q0 58 -18 74t-78 16v146h352v-141q52 89 116 131.5t146 42.5q83 0 138.5 -44t82.5 -130q52 89 116 131.5t147 42.5q119 0 175 -79.5t56 -248.5v-573q0 -60 17 -74.5t77 -14.5v-147h-432v147q45 4 58.5 19t13.5 70v581q0 57 -19 84 t-59 27q-63 0 -102 -62t-39 -164v-466q0 -56 13 -70.5t58 -18.5v-147h-407v147q45 4 58 19t13 70v581q0 56 -19.5 83.5t-59.5 27.5q-63 0 -101.5 -61.5t-38.5 -164.5v-466q0 -56 14 -71t58 -18v-147h-432z" />
<glyph unicode="n" horiz-adv-x="1006" d="M39 0v147q61 0 78.5 15.5t17.5 73.5v632q0 58 -18 74t-78 16v146h352v-141q52 89 116 131.5t146 42.5q119 0 174.5 -79t55.5 -249v-573q0 -59 17.5 -74t78.5 -15v-147h-432v147q45 4 58 19t13 70v581q0 56 -19.5 83.5t-59.5 27.5q-63 0 -101.5 -61.5t-38.5 -164.5v-466 q0 -56 14 -71t58 -18v-147h-432z" />
<glyph unicode="o" horiz-adv-x="872" d="M57 553q0 302 91.5 442t287.5 140t287.5 -140t91.5 -442t-91.5 -443t-287.5 -141t-287.5 141t-91.5 443zM332 553q0 -285 22 -353.5t82 -68.5t82.5 74t22.5 348t-22.5 348t-82.5 74t-82 -68.5t-22 -353.5z" />
<glyph unicode="p" horiz-adv-x="952" d="M39 -209q60 0 78 16t18 74v987q0 58 -18 74t-78 16v146h352v-107q50 71 103.5 104.5t115.5 33.5q134 0 209.5 -153.5t75.5 -428.5q0 -283 -78 -433.5t-223 -150.5q-63 0 -112 28t-83 83v-199q0 -56 15.5 -73t56.5 -17h37v-147h-469v147zM399 553q0 -238 25.5 -314.5 t91.5 -76.5t91.5 76.5t25.5 314.5q0 234 -26 313.5t-91 79.5t-91 -77.5t-26 -315.5z" />
<glyph unicode="q" horiz-adv-x="930" d="M57 553q0 280 88 431t250 151q85 0 150 -46t106 -135l56 150h110v-1223q0 -59 18 -74.5t78 -15.5v-147h-469v147h37q41 0 56.5 17t15.5 73v199q-34 -55 -82.5 -83t-112.5 -28q-146 0 -223.5 150t-77.5 434zM328 553q0 -238 25.5 -314.5t90.5 -76.5q66 0 91.5 78.5 t25.5 312.5q0 238 -25.5 314.5t-91.5 76.5q-65 0 -90.5 -76.5t-25.5 -314.5z" />
<glyph unicode="r" horiz-adv-x="733" d="M39 0v147q61 0 78.5 15.5t17.5 73.5v632q0 58 -18 74t-78 16v146h317v-94q34 51 80 78.5t101 27.5q89 0 141.5 -59.5t52.5 -161.5q0 -88 -40 -139t-107 -51q-55 0 -87 36.5t-32 98.5t34 98t97 41q-14 14 -29.5 20.5t-34.5 6.5q-71 0 -102 -62.5t-31 -214.5v-493 q0 -58 17 -73.5t71 -15.5h45v-147h-493z" />
<glyph unicode="s" horiz-adv-x="858" d="M70 811q0 144 84.5 234t220.5 90q64 0 118 -23t101 -70l51 62h107v-397h-131q-15 133 -72 205.5t-146 72.5q-47 0 -76.5 -27.5t-29.5 -70.5q0 -45 38.5 -86.5t135.5 -98.5l97 -54q95 -53 118 -75q64 -58 92.5 -126t28.5 -164q0 -142 -81 -228t-214 -86q-80 0 -143 26 t-121 83l-51 -78h-119v440h137q10 -145 80 -235t168 -90q52 0 81 27.5t29 76.5q0 50 -26 86t-119 94q-48 31 -129.5 78t-101.5 66q-69 63 -98 125.5t-29 142.5z" />
<glyph unicode="t" horiz-adv-x="631" d="M16 958l1 146q109 3 161 70t62 221h151v-291h193v-146h-193v-745q0 -54 10.5 -73t36.5 -19q28 0 39.5 21t11.5 71q0 24 2 50q1 8 1 9v70h120v-117q0 -130 -55.5 -193t-171.5 -63q-147 0 -203.5 60t-56.5 223v706h-109z" />
<glyph unicode="u" horiz-adv-x="995" d="M31 958v146h360v-815q0 -58 19 -85.5t59 -27.5q63 0 101 61.5t38 163.5v467q0 61 -17 75.5t-77 14.5v146h360v-868q0 -60 17.5 -74.5t77.5 -14.5v-147h-351v141q-51 -88 -114.5 -130t-147.5 -42q-119 0 -175 78.5t-56 247.5v573q0 59 -17.5 74.5t-76.5 15.5z" />
<glyph unicode="v" horiz-adv-x="831" d="M-10 959v145h442v-146q-47 0 -66.5 -11.5t-19.5 -41.5q0 -4 1 -11l3 -21l109 -572l125 571q2 9 3 17t1 20q0 26 -20.5 37.5t-65.5 11.5v146h325v-146q-33 -7 -50.5 -23.5t-24.5 -47.5l-224 -887h-229l-223 893q-10 39 -28 51.5t-58 14.5z" />
<glyph unicode="w" horiz-adv-x="1290" d="M2 959v145h408v-145q-44 -2 -61 -13t-17 -39q0 -6 0.5 -12.5t3.5 -22.5l102 -585l101 586q2 11 3 20.5t1 17.5q0 22 -18 34t-52 14v145h436v-145q-44 -2 -61 -13t-17 -39q1 -6 1.5 -12.5t3.5 -22.5l100 -585l100 585q4 20 5 28t1 11q0 22 -18 34t-51 14v145h307v-145 q-33 -8 -51 -25t-25 -47l-182 -887h-252l-117 719l-131 -719h-252l-182 893q-8 36 -26.5 50t-59.5 16z" />
<glyph unicode="x" horiz-adv-x="895" d="M14 0v147h15q49 0 78.5 19t66.5 82l158 264l-197 373q-22 42 -47 56t-69 15l-1 148h433v-148h-9q-20 0 -29.5 -7t-9.5 -23q0 -9 3 -20.5t8 -22.5l73 -148l64 148q5 13 7.5 24t2.5 19q0 15 -10 22.5t-31 7.5h-14v148h344v-148q-44 -6 -75 -26.5t-54 -59.5l-160 -268 l195 -369q23 -43 54.5 -63t80.5 -23v-147h-455v147q31 0 46.5 8.5t15.5 24.5q0 9 -4.5 23.5t-12.5 32.5l-65 129l-66 -132q-9 -18 -14.5 -32.5t-5.5 -20.5q0 -16 11 -24.5t34 -8.5h8v-147h-369z" />
<glyph unicode="y" horiz-adv-x="834" d="M-41 -156q0 71 38.5 113.5t102.5 42.5q58 0 92.5 -34t34.5 -91q0 -50 -25 -78.5t-75 -34.5q11 -14 24 -21t29 -7q48 0 85 58t69 183l-256 918q-10 35 -28 50t-50 15h-6v146h440v-146q-48 0 -67 -11.5t-19 -39.5q0 -5 1 -13l3 -21l109 -511l127 511q2 7 3 15t1 19 q0 27 -20.5 39t-65.5 12v146h338v-145q-39 -5 -60 -21.5t-30 -50.5l-260 -903q-60 -205 -130.5 -290t-177.5 -85q-108 0 -167.5 62t-59.5 173z" />
<glyph unicode="z" horiz-adv-x="827" d="M43 0v131l444 827h-77q-119 0 -164 -51t-45 -184v-10h-138v391h713v-137l-438 -820h74q120 0 168 59.5t59 225.5h137v-432h-733z" />
<glyph unicode="{" d="M178 602v68q159 15 216 76t57 223v200q0 200 84.5 273.5t314.5 73.5v-57q-128 -2 -175.5 -55t-47.5 -210v-137q0 -225 -56.5 -307.5t-208.5 -114.5q152 -32 208.5 -114.5t56.5 -307.5v-137q0 -157 47 -209t176 -54v-57h-10q-222 0 -305.5 74t-83.5 272v201 q0 161 -58 223.5t-215 75.5z" />
<glyph unicode="|" d="M424 -483v2048h178v-2048h-178z" />
<glyph unicode="}" d="M174 -187q129 2 176 54t47 209v137q0 227 56.5 308.5t208.5 113.5q-151 32 -208 113.5t-57 308.5v137q0 157 -47.5 210t-175.5 55v57h10q223 0 307 -74.5t84 -272.5v-200q0 -162 57 -223t216 -76v-68q-157 -13 -215 -74.5t-58 -224.5v-201q0 -197 -84 -271.5t-307 -74.5 h-10v57z" />
<glyph unicode="~" horiz-adv-x="1706" d="M178 434v187q106 72 202 107.5t185 35.5q62 0 125.5 -12t168.5 -48q13 -4 42 -15q164 -58 250 -58q85 0 177 37t202 116v-184q-103 -71 -197.5 -106t-183.5 -35q-44 0 -92.5 8.5t-98.5 26.5q-25 8 -76 26q-212 74 -319 74q-82 0 -174 -38t-211 -122z" />
<glyph horiz-adv-x="948" d="M-10 549l41 125h98v35q0 23 1 49l3 77l-143 1l41 122h112q31 257 129.5 391t257.5 134q70 0 117.5 -27.5t87.5 -91.5l31 84h127v-381h-154q-12 133 -54 200.5t-114 67.5q-81 0 -120 -85t-50 -292h375l-41 -122l-338 -1q-1 -27 -1.5 -59.5t-0.5 -101.5h281l-41 -125h-239 q3 -251 43 -342.5t132 -91.5q80 0 119 57.5t39 175.5q0 44 -0.5 68.5t-1.5 45.5l174 1v-55q0 -229 -86 -335t-268 -106q-192 0 -293 142t-121 440h-143z" />
<glyph unicode="&#x20ac;" horiz-adv-x="948" d="M-10 549l41 125h98v35q0 23 1 49l3 77l-143 1l41 122h112q31 257 129.5 391t257.5 134q70 0 117.5 -27.5t87.5 -91.5l31 84h127v-381h-154q-12 133 -54 200.5t-114 67.5q-81 0 -120 -85t-50 -292h375l-41 -122l-338 -1q-1 -27 -1.5 -59.5t-0.5 -101.5h281l-41 -125h-239 q3 -251 43 -342.5t132 -91.5q80 0 119 57.5t39 175.5q0 44 -0.5 68.5t-1.5 45.5l174 1v-55q0 -229 -86 -335t-268 -106q-192 0 -293 142t-121 440h-143z" />
<glyph unicode="&#xa1;" horiz-adv-x="598" d="M131 215q0 72 50 267.5t50 324.5v264h136v-264q0 -129 50 -324.5t50 -267.5q0 -116 -45 -182t-123 -66t-123 66t-45 182zM147 1315q0 67 42.5 110t107.5 43q64 0 109 -44.5t45 -108.5q0 -59 -47 -104.5t-107 -45.5q-62 0 -106 44t-44 106z" />
<glyph unicode="&#xa2;" horiz-adv-x="948" d="M94 553q0 283 103 433.5t297 150.5q48 0 91 -10.5t79 -30.5l88 276h104l-108 -342q34 -46 51.5 -98t17.5 -107q0 -77 -35 -120t-98 -43q-13 0 -27.5 3.5t-29.5 10.5l-172 -526q17 -7 31 -10t26 -3q74 0 114 56t40 161v105h151v-82q0 -200 -87.5 -304t-254.5 -104 q-12 0 -26.5 1.5t-34.5 4.5l-90 -282h-107l100 311q-112 42 -167.5 178.5t-55.5 370.5zM354 539q0 -130 8.5 -208t26.5 -114l195 617q12 27 34 42.5t53 18.5q-7 44 -39 69t-81 25q-106 0 -151.5 -101.5t-45.5 -348.5z" />
<glyph unicode="&#xa3;" horiz-adv-x="948" d="M45 109q128 62 188 130.5t60 151.5q0 43 -13 101t-44 149h-191v125h154q-30 82 -45 156t-15 137q0 190 116 308t302 118q149 0 236.5 -70t87.5 -188q0 -78 -40.5 -125t-107.5 -47q-57 0 -93 36.5t-36 96.5q0 54 30.5 85t88.5 36q-20 25 -49.5 39t-65.5 14 q-87 0 -138.5 -62t-51.5 -167q0 -54 13.5 -144.5t41.5 -222.5h234v-125h-213q5 -36 7.5 -63t2.5 -50q0 -108 -42 -186.5t-128 -130.5l2 -12q33 20 70 29.5t83 9.5q40 0 98.5 -12.5t78.5 -12.5q64 0 92 45t28 150v24h133q2 -12 2.5 -25.5t0.5 -39.5q0 -191 -70.5 -295.5 t-198.5 -104.5q-57 0 -167.5 40t-168.5 40q-47 0 -97.5 -19.5t-108.5 -60.5z" />
<glyph unicode="&#xa4;" horiz-adv-x="948" d="M-10 549l41 125h98v35q0 23 1 49l3 77l-143 1l41 122h112q31 257 129.5 391t257.5 134q70 0 117.5 -27.5t87.5 -91.5l31 84h127v-381h-154q-12 133 -54 200.5t-114 67.5q-81 0 -120 -85t-50 -292h375l-41 -122l-338 -1q-1 -27 -1.5 -59.5t-0.5 -101.5h281l-41 -125h-239 q3 -251 43 -342.5t132 -91.5q80 0 119 57.5t39 175.5q0 44 -0.5 68.5t-1.5 45.5l174 1v-55q0 -229 -86 -335t-268 -106q-192 0 -293 142t-121 440h-143z" />
<glyph unicode="&#xa5;" horiz-adv-x="948" d="M0 592v125h317l-67 180h-250v123h203l-76 207q-14 32 -30 43.5t-46 11.5q-4 0 -12.5 -1t-13.5 -1v170h434v-170q-43 -2 -63.5 -14t-20.5 -35q0 -6 3 -16q0 -2 1 -5l149 -430l142 430q0 2 1 5q3 11 3 16q0 24 -23 36.5t-69 12.5v170h356v-170h-23q-35 0 -50.5 -10 t-33.5 -53l-71 -197h192v-123h-235l-68 -180h303v-125h-338v-322q0 -53 23 -76.5t74 -23.5h43v-170h-535v170h33q60 0 83 21t23 79v322h-358z" />
<glyph unicode="&#xa6;" d="M424 -350v758h178v-758h-178zM424 674v758h178v-758h-178z" />
<glyph unicode="&#xa7;" horiz-adv-x="1006" d="M76 539q0 109 57.5 190.5t173.5 134.5q-81 56 -119 121t-38 150q0 151 105.5 250.5t268.5 99.5q140 0 236 -74.5t96 -177.5q0 -65 -36.5 -105.5t-94.5 -40.5q-55 0 -88 31.5t-33 83.5q0 35 14 61t44 48q-24 23 -58.5 36t-75.5 13q-75 0 -122.5 -42t-47.5 -108 q0 -98 197 -218q43 -25 66 -40q187 -116 248 -196.5t61 -188.5q0 -104 -56.5 -181.5t-175.5 -135.5q76 -46 116 -113.5t40 -148.5q0 -163 -106 -262t-281 -99q-145 0 -234.5 69t-89.5 179q0 65 34 106.5t87 41.5q57 0 92 -33.5t35 -85.5q0 -34 -11.5 -57t-37.5 -42 q21 -27 54.5 -41t78.5 -14q79 0 125.5 41.5t46.5 110.5q0 96 -198 216l-51 31q-207 128 -264.5 206t-57.5 184zM264 623q0 -63 58.5 -121t277.5 -185q69 23 105 66t36 100q0 63 -58.5 121t-276.5 184q-70 -24 -106 -66t-36 -99z" />
<glyph unicode="&#xa8;" d="M172 1430q0 58 43.5 101.5t101.5 43.5q59 0 100.5 -42t41.5 -101q0 -63 -40 -103.5t-102 -40.5q-60 0 -102.5 41t-42.5 101zM561 1430q0 58 43.5 101.5t102.5 43.5t101 -42t42 -101q0 -63 -40.5 -103.5t-102.5 -40.5q-61 0 -103.5 41t-42.5 101z" />
<glyph unicode="&#xa9;" horiz-adv-x="1683" d="M121 678q0 143 54 274.5t157 235.5q102 102 235 157.5t277 55.5q140 0 272.5 -55.5t233.5 -155.5q101 -102 157 -235.5t56 -276.5q0 -142 -55.5 -274t-157.5 -236q-101 -102 -231 -155.5t-277 -53.5q-145 0 -274.5 53t-233.5 156q-104 104 -158.5 234.5t-54.5 275.5z M219 678q0 -126 47.5 -239.5t136.5 -202.5q91 -91 201.5 -137t237.5 -46q126 0 238.5 47t199.5 136q88 89 136 204.5t48 237.5q0 124 -48 241.5t-136 204.5q-86 86 -200 133.5t-236 47.5q-126 0 -241 -48t-202 -137q-88 -90 -135 -203.5t-47 -238.5zM416 670 q0 184 119.5 309t295.5 125q80 0 154 -33t78 -33q28 0 41.5 14t19.5 48h41l2 -320h-47q-32 134 -102 203.5t-172 69.5q-116 0 -176 -94t-60 -275q0 -184 65 -281.5t189 -97.5q82 0 151 43.5t126 130.5l43 -26q-63 -108 -150 -160.5t-200 -52.5q-177 0 -297.5 124t-120.5 306 z" />
<glyph unicode="&#xaa;" horiz-adv-x="776" d="M41 850q0 80 45.5 133t173.5 111q113 52 142.5 86.5t29.5 87.5q0 51 -34.5 81.5t-92.5 30.5q-38 0 -68 -11t-51 -34q4 0 12.5 1t12.5 1q42 0 68 -26t26 -68q0 -43 -31 -70.5t-81 -27.5q-56 0 -89.5 31.5t-33.5 85.5q0 93 77.5 152t202.5 59q92 0 152.5 -26t95.5 -79 q14 -22 20.5 -63.5t6.5 -112.5v-377q0 -27 4.5 -35t17.5 -8q18 0 25.5 20.5t7.5 75.5v33h74v-55q0 -96 -41 -142.5t-125 -46.5q-59 0 -93.5 27.5t-50.5 85.5q-33 -56 -82 -84.5t-114 -28.5q-96 0 -151.5 52t-55.5 141zM242 877q0 -39 21.5 -61.5t58.5 -22.5q53 0 79.5 45.5 t26.5 136.5v102q-120 -74 -153 -113.5t-33 -86.5z" />
<glyph unicode="&#xab;" horiz-adv-x="877" d="M57 549q0 47 47.5 128.5t188.5 266.5h153q-14 -33 -42 -94q-111 -247 -111 -297q0 -43 28 -118t125 -273h-147q-131 158 -186.5 247t-55.5 140zM432 549q0 47 47.5 128.5t188.5 266.5h151l-30 -68q-121 -270 -121 -323q0 -45 30 -125t121 -266h-145q-131 158 -186.5 247 t-55.5 140z" />
<glyph unicode="&#xac;" horiz-adv-x="1706" d="M254 696v166h1198v-502h-166v336h-1032z" />
<glyph unicode="&#xad;" horiz-adv-x="639" d="M82 451v227h475v-227h-475z" />
<glyph unicode="&#xae;" horiz-adv-x="1683" d="M121 678q0 143 54.5 275t156.5 235q102 102 235 157.5t277 55.5t279 -57t235 -160q98 -102 151.5 -235.5t53.5 -278.5q0 -138 -59.5 -272.5t-166.5 -239.5q-101 -100 -228 -149.5t-282 -49.5q-135 0 -264 54.5t-229 154.5q-105 104 -159 234t-54 276zM219 678 q0 -126 47.5 -239.5t136.5 -202.5q91 -91 201.5 -137t237.5 -46q126 0 238.5 47t199.5 136q89 90 136.5 204.5t47.5 237.5q0 122 -48.5 240t-135.5 206q-86 86 -200 133.5t-236 47.5q-126 0 -241 -48t-202 -137q-89 -90 -135.5 -203t-46.5 -239zM467 287v46q64 4 88.5 24.5 t24.5 72.5v520q0 52 -23.5 72t-89.5 25v49h399q145 0 232.5 -55t87.5 -142q0 -84 -65.5 -133t-217.5 -76q96 -25 147.5 -73t69.5 -127q6 -24 10 -67q9 -91 54 -91q29 0 44 34t15 99h49v-23q0 -85 -43 -129.5t-127 -44.5q-46 0 -80 14.5t-53 43.5q-24 39 -27 111.5t-8 93.5 q-16 74 -60.5 109.5t-121.5 35.5h-24v-246q0 -49 22.5 -69.5t85.5 -26.5v-47h-389zM748 723q14 -1 27 -1.5t26 -0.5q100 0 154.5 44t54.5 126q0 70 -46.5 114t-121.5 44q-47 0 -70.5 -17.5t-23.5 -50.5v-258z" />
<glyph unicode="&#xaf;" d="M205 1346v170h614v-170h-614z" />
<glyph unicode="&#xb0;" horiz-adv-x="674" d="M43 1163q0 125 86 211t209 86t209 -87t86 -210q0 -121 -87 -208t-210 -87t-208 85.5t-85 209.5zM152 1165q0 -76 54.5 -131t131.5 -55t130.5 54.5t53.5 131.5t-53.5 131t-130.5 54t-131.5 -54t-54.5 -131z" />
<glyph unicode="&#xb1;" horiz-adv-x="1706" d="M254 14v168h1198v-168h-1198zM254 707v165h514v334h170v-334h514v-165h-514v-334h-170v334h-514z" />
<glyph unicode="&#xb2;" horiz-adv-x="627" d="M18 580v28q0 78 21 144.5t63 121.5q40 51 120 120l34 30q78 71 106.5 119t28.5 100q0 65 -35 102t-96 37q-48 0 -81.5 -22t-47.5 -64q12 9 22.5 13t20.5 4q37 0 60.5 -22.5t23.5 -57.5q0 -42 -28.5 -67t-75.5 -25q-52 0 -82.5 31.5t-30.5 84.5q0 94 72.5 153.5 t187.5 59.5q119 0 188.5 -61t69.5 -168q0 -47 -18.5 -92.5t-53.5 -81.5q-48 -54 -153 -124l-22 -15l-7 -5q-152 -112 -180 -208q28 17 53 25t51 8q29 0 79 -13.5t71 -13.5q51 0 73.5 33.5t22.5 109.5h76v-53q0 -126 -42 -189t-126 -63q-28 0 -55.5 8.5t-75.5 34.5l-5 4 q-58 37 -89 37q-26 0 -42.5 -16.5t-21.5 -46.5h-76z" />
<glyph unicode="&#xb3;" horiz-adv-x="627" d="M20 764q0 54 31.5 88.5t79.5 34.5q40 0 68 -26t28 -64q0 -36 -22 -58t-55 -22q-6 0 -22 3q-4 0 -7 1q9 -30 42.5 -50t76.5 -20q65 0 103 45t38 123q0 83 -42 126.5t-122 43.5h-10v78q89 0 132.5 43t43.5 131q0 65 -35.5 102t-97.5 37q-40 0 -67 -17.5t-33 -47.5 q9 3 15.5 4.5t10.5 1.5q30 0 51 -22.5t21 -55.5q0 -37 -25 -62.5t-63 -25.5q-47 0 -77 32.5t-30 82.5q0 85 69.5 142.5t174.5 57.5q113 0 183.5 -62t70.5 -161q0 -83 -42.5 -136t-131.5 -81q91 -20 138.5 -74.5t47.5 -138.5q0 -115 -81 -186.5t-212 -71.5q-107 0 -178.5 59 t-71.5 146z" />
<glyph unicode="&#xb4;" d="M299 1247l279 295q51 55 85 75.5t70 20.5q47 0 79 -31t32 -77q0 -36 -24.5 -64.5t-80.5 -56.5l-325 -162h-115z" />
<glyph unicode="&#xb5;" horiz-adv-x="1184" d="M-109 -319q0 52 69 282.5t108 409.5l108 512h207l-100 -467q-10 -46 -15.5 -82t-5.5 -57q0 -64 37 -101t102 -37q87 0 139 53.5t76 167.5l111 523h209l-113 -533l-3 -15q-15 -70 -15 -110q0 -42 22.5 -66t63.5 -24q40 0 71 21.5t58 68.5q9 17 23 49q25 60 51 60 q11 0 16.5 -7.5t5.5 -23.5q0 -28 -17 -85.5t-40 -100.5q-41 -72 -95.5 -108t-123.5 -36q-84 0 -129.5 55t-47.5 156q-42 -104 -109.5 -157.5t-156.5 -53.5q-99 0 -156.5 58t-68.5 168q-23 -124 -48 -315q-39 -306 -134 -306q-47 0 -73 26.5t-26 74.5z" />
<glyph unicode="&#xb6;" d="M55 1130q0 158 107 253.5t284 95.5h523v-99h-117v-1380h-129v1380h-168v-1380h-131v784q-168 6 -268.5 101t-100.5 245z" />
<glyph unicode="&#xb7;" horiz-adv-x="473" d="M78 727q0 62 48 110t112 48q65 0 112 -46.5t47 -111.5q0 -70 -45 -116t-114 -46q-68 0 -114 47t-46 115z" />
<glyph unicode="&#xb8;" d="M217 -377l49 101q67 -38 126.5 -57t111.5 -19q39 0 62.5 20.5t23.5 55.5q0 39 -24 60t-68 21q-15 0 -30 -2t-32 -6l31 203h88l-18 -110q23 2 33.5 2.5t19.5 1.5q86 0 136 -46.5t50 -126.5q0 -87 -60.5 -137.5t-166.5 -50.5q-62 0 -139.5 21t-192.5 69z" />
<glyph unicode="&#xb9;" horiz-adv-x="627" d="M141 580v88h33q32 0 47 14t15 45v563h-95v86h25q66 0 104.5 22.5t57.5 71.5h71v-743q0 -32 14.5 -45.5t47.5 -13.5h20v-88h-340z" />
<glyph unicode="&#xba;" horiz-adv-x="655" d="M43 1065q0 212 68.5 310t216.5 98q146 0 215 -99t69 -309q0 -211 -69 -309.5t-215 -98.5q-148 0 -216.5 98t-68.5 310zM250 1065q0 -203 16.5 -249t61.5 -46q44 0 61 51t17 244t-17 244t-61 51q-45 0 -61.5 -46t-16.5 -249z" />
<glyph unicode="&#xbb;" horiz-adv-x="877" d="M57 160l38 83q116 259 116 310q0 43 -28.5 118t-125.5 273h146q131 -158 186 -247t55 -140q0 -48 -49 -132t-186 -265h-152zM432 160l24 54q128 285 128 339q0 45 -30.5 124.5t-121.5 266.5h146q130 -158 185.5 -247t55.5 -140q0 -48 -49 -132t-186 -265h-152z" />
<glyph unicode="&#xbc;" horiz-adv-x="1536" d="M137 637v82h29q32 0 45.5 13t13.5 42v526h-88v80h21q64 0 101.5 21.5t53.5 66.5h68v-694q0 -29 14 -42t45 -13h21v-82h-324zM256 -33l895 1518h129l-885 -1518h-139zM944 193v67l320 551h141v-532h117v-86h-117v-56q0 -29 14.5 -42t46.5 -13h19v-82h-334v82h45 q32 0 45.5 13t13.5 42v56h-311zM1051 279h204v360z" />
<glyph unicode="&#xbd;" horiz-adv-x="1536" d="M137 637v82h29q32 0 45.5 13t13.5 42v526h-88v80h21q64 0 101.5 21.5t53.5 66.5h68v-694q0 -29 14 -42t45 -13h21v-82h-324zM256 -33l895 1518h129l-885 -1518h-139zM956 0v27q0 72 20.5 134t61.5 113q39 51 121 119l24 20q78 70 105 114t27 91q0 61 -34 96.5t-91 35.5 q-47 0 -79 -21.5t-46 -60.5q10 8 20 12t21 4q36 0 58 -20.5t22 -53.5q0 -39 -27.5 -63.5t-71.5 -24.5q-48 0 -77 30t-29 81q0 88 68 143t178 55q114 0 180 -56.5t66 -156.5q0 -45 -17.5 -87t-50.5 -76q-40 -45 -130 -106l-35 -25q-93 -63 -128.5 -105t-50.5 -92 q24 15 48.5 23t47.5 8q28 0 76.5 -13.5t66.5 -13.5q49 0 71 31t24 102h71v-49q0 -117 -40 -176t-119 -59q-29 0 -56.5 9t-68.5 34q-7 3 -21 11q-45 25 -69 25q-25 0 -41.5 -15t-22.5 -44h-72z" />
<glyph unicode="&#xbe;" horiz-adv-x="1536" d="M18 809q0 50 30.5 82.5t76.5 32.5q39 0 65.5 -24t26.5 -60q0 -33 -21 -54.5t-53 -21.5q-3 0 -8 0.5t-18 3.5q8 -28 39 -45.5t73 -17.5q63 0 99.5 41.5t36.5 113.5q0 78 -40.5 118t-117.5 40h-10v74q85 0 126.5 39.5t41.5 121.5q0 63 -33 97t-92 34q-39 0 -65.5 -16.5 t-32.5 -44.5q9 3 15.5 4.5t12.5 1.5q27 0 47.5 -21.5t20.5 -52.5q0 -34 -25 -56.5t-61 -22.5q-45 0 -73 29t-28 75q0 81 66 134.5t166 53.5q108 0 175.5 -57.5t67.5 -148.5q0 -79 -40.5 -129t-125.5 -76q87 -19 133 -70t46 -129q0 -106 -78 -173t-203 -67 q-103 0 -171.5 54.5t-68.5 136.5zM256 -33l895 1518h129l-885 -1518h-139zM944 193v67l320 551h141v-532h117v-86h-117v-56q0 -29 14.5 -42t46.5 -13h19v-82h-334v82h45q32 0 45.5 13t13.5 42v56h-311zM1051 279h204v360z" />
<glyph unicode="&#xbf;" horiz-adv-x="858" d="M70 309q0 71 22 129.5t66 102.5q41 41 99.5 84.5t68.5 52.5q52 49 71 100.5t19 182.5v112h135v-184q0 -121 -13 -185.5t-42 -113.5q-21 -33 -65 -91q-95 -126 -95 -208q0 -79 48 -127.5t126 -48.5q50 0 89 21.5t62 61.5q-4 0 -11 -0.5t-19 -0.5q-61 0 -97 34.5t-36 92.5 q0 65 42.5 107t108.5 42q74 0 118 -49.5t44 -132.5q0 -138 -103.5 -230t-258.5 -92q-175 0 -277 92t-102 248zM332 1317q0 67 42 110t107 43q64 0 109 -44.5t45 -108.5q0 -58 -47 -104t-107 -46q-62 0 -105.5 44t-43.5 106z" />
<glyph unicode="&#xc0;" d="M2 0v170h18q47 0 63 13t24 53l274 1214h295l248 -1225q6 -31 22 -44t49 -13q4 0 13 1t14 1v-170h-510v170q60 0 82 11t22 40q0 4 -1 10t-1 9l-26 192h-254l-43 -194q-1 -3 -1.5 -7t-0.5 -10q0 -25 17 -39t48 -14q11 0 17 0.5t10 0.5v-169h-379zM365 592h202l-88 549z M205 1878q0 46 32 77t79 31q36 0 70 -20.5t85 -75.5l279 -295h-115l-325 162q-56 28 -80.5 56.5t-24.5 64.5z" />
<glyph unicode="&#xc1;" d="M2 0v170h18q47 0 63 13t24 53l274 1214h295l248 -1225q6 -31 22 -44t49 -13q4 0 13 1t14 1v-170h-510v170q60 0 82 11t22 40q0 4 -1 10t-1 9l-26 192h-254l-43 -194q-1 -3 -1.5 -7t-0.5 -10q0 -25 17 -39t48 -14q11 0 17 0.5t10 0.5v-169h-379zM365 592h202l-88 549z M324 1595l279 295q51 55 85 75.5t70 20.5q47 0 79 -31t32 -77q0 -36 -24.5 -64.5t-80.5 -56.5l-325 -162h-115z" />
<glyph unicode="&#xc2;" d="M2 0v170h18q47 0 63 13t24 53l274 1214h295l248 -1225q6 -31 22 -44t49 -13q4 0 13 1t14 1v-170h-510v170q60 0 82 11t22 40q0 4 -1 10t-1 9l-26 192h-254l-43 -194q-1 -3 -1.5 -7t-0.5 -10q0 -25 17 -39t48 -14q11 0 17 0.5t10 0.5v-169h-379zM365 592h202l-88 549z M215 1595l230 369h184l230 -369h-101l-221 170l-221 -170h-101z" />
<glyph unicode="&#xc3;" d="M2 0v170h18q47 0 63 13t24 53l274 1214h295l248 -1225q6 -31 22 -44t49 -13q4 0 13 1t14 1v-170h-510v170q60 0 82 11t22 40q0 4 -1 10t-1 9l-26 192h-254l-43 -194q-1 -3 -1.5 -7t-0.5 -10q0 -25 17 -39t48 -14q11 0 17 0.5t10 0.5v-169h-379zM365 592h202l-88 549z M209 1624q27 135 84 200.5t148 65.5q22 0 40.5 -2.5t37.5 -7.5l120 -33q5 -1 11 -2q25 -6 34 -6q36 0 59 22.5t38 71.5h82q-26 -130 -84 -198t-144 -68q-15 0 -31.5 2.5t-37.5 7.5l-117 31q-17 5 -31.5 7.5t-25.5 2.5q-39 0 -64 -24t-35 -70h-84z" />
<glyph unicode="&#xc4;" d="M2 0v170h18q47 0 63 13t24 53l274 1214h295l248 -1225q6 -31 22 -44t49 -13q4 0 13 1t14 1v-170h-510v170q60 0 82 11t22 40q0 4 -1 10t-1 9l-26 192h-254l-43 -194q-1 -3 -1.5 -7t-0.5 -10q0 -25 17 -39t48 -14q11 0 17 0.5t10 0.5v-169h-379zM365 592h202l-88 549z M197 1778q0 58 43.5 101.5t101.5 43.5q59 0 100.5 -42t41.5 -101q0 -63 -40 -103.5t-102 -40.5q-60 0 -102.5 41t-42.5 101zM586 1778q0 58 43.5 101.5t102.5 43.5t101 -42t42 -101q0 -63 -40.5 -103.5t-102.5 -40.5q-61 0 -103.5 41t-42.5 101z" />
<glyph unicode="&#xc5;" d="M2 0v170h18q47 0 63 13t24 53l270 1196h305l242 -1207q6 -31 22 -44t49 -13q4 0 13 1t14 1v-170h-510v170q60 0 82 11t22 40q0 4 -1 10t-1 9l-26 192h-254l-43 -194q-1 -3 -1.5 -7t-0.5 -10q0 -25 17 -39t48 -14q11 0 17 0.5t10 0.5v-169h-379zM293 1733q0 100 69 169.5 t168 69.5q100 0 170 -70t70 -169q0 -100 -69.5 -169t-170.5 -69t-169 68t-68 170zM365 592h202l-88 549zM422 1733q0 -47 30.5 -78t77.5 -31q46 0 77.5 31.5t31.5 77.5q0 45 -32 77.5t-77 32.5t-76.5 -32t-31.5 -78z" />
<glyph unicode="&#xc6;" horiz-adv-x="1626" d="M-41 0v169q57 4 95 29t57 72l356 897l1 4q13 36 13 43q0 34 -28.5 50t-90.5 16h-30v170h1210v-489h-147q-10 185 -69 252t-208 67h-110v-451h22q76 0 107 45.5t33 161.5h130v-575h-130q-3 124 -33 169.5t-107 45.5h-22v-506h110q160 0 218.5 80t58.5 315h147v-565h-915 v170q61 2 82.5 22.5t21.5 77.5v256h-328l-96 -256q-6 -17 -9 -30.5t-3 -24.5q0 -24 19 -34.5t63 -10.5v-170h-418zM461 680h270v620h-35z" />
<glyph unicode="&#xc7;" horiz-adv-x="934" d="M61 709q0 376 103.5 576t298.5 200q70 0 125 -29.5t98 -89.5l31 84h127v-555h-154q-10 217 -49.5 309t-120.5 92q-88 0 -121.5 -121t-33.5 -530q0 -313 33.5 -406.5t121.5 -93.5q86 0 123 80.5t37 274.5q0 44 -0.5 68.5t-1.5 47.5h174v-137q0 -267 -89.5 -389.5 t-283.5 -122.5q-215 0 -316.5 179.5t-101.5 562.5zM172 -377l49 101q67 -38 126.5 -57t111.5 -19q39 0 62.5 20.5t23.5 55.5q0 39 -24 60t-68 21q-15 0 -30 -2t-32 -6l31 203h88l-18 -110q23 2 33.5 2.5t19.5 1.5q86 0 136 -46.5t50 -126.5q0 -87 -60.5 -137.5t-166.5 -50.5 q-62 0 -139.5 21t-192.5 69z" />
<glyph unicode="&#xc8;" horiz-adv-x="1057" d="M57 0l1 170q60 2 82 22.5t22 77.5v910q0 57 -22 77.5t-83 23.5v169h916v-489h-148q-9 185 -68 252t-208 67h-98v-451h10q75 0 105 43.5t34 163.5h131v-575h-131q-2 124 -32 169.5t-107 45.5h-10v-506h98q160 0 218 80t58 315h148v-565h-916zM196 1878q0 46 32 77t79 31 q36 0 70 -20.5t85 -75.5l279 -295h-115l-325 162q-56 28 -80.5 56.5t-24.5 64.5z" />
<glyph unicode="&#xc9;" horiz-adv-x="1057" d="M57 0l1 170q60 2 82 22.5t22 77.5v910q0 57 -22 77.5t-83 23.5v169h916v-489h-148q-9 185 -68 252t-208 67h-98v-451h10q75 0 105 43.5t34 163.5h131v-575h-131q-2 124 -32 169.5t-107 45.5h-10v-506h98q160 0 218 80t58 315h148v-565h-916zM315 1595l279 295 q51 55 85 75.5t70 20.5q47 0 79 -31t32 -77q0 -36 -24.5 -64.5t-80.5 -56.5l-325 -162h-115z" />
<glyph unicode="&#xca;" horiz-adv-x="1057" d="M57 0l1 170q60 2 82 22.5t22 77.5v910q0 57 -22 77.5t-83 23.5v169h916v-489h-148q-9 185 -68 252t-208 67h-98v-451h10q75 0 105 43.5t34 163.5h131v-575h-131q-2 124 -32 169.5t-107 45.5h-10v-506h98q160 0 218 80t58 315h148v-565h-916zM206 1595l230 369h184 l230 -369h-101l-221 170l-221 -170h-101z" />
<glyph unicode="&#xcb;" horiz-adv-x="1057" d="M57 0l1 170q60 2 82 22.5t22 77.5v910q0 57 -22 77.5t-83 23.5v169h916v-489h-148q-9 185 -68 252t-208 67h-98v-451h10q75 0 105 43.5t34 163.5h131v-575h-131q-2 124 -32 169.5t-107 45.5h-10v-506h98q160 0 218 80t58 315h148v-565h-916zM188 1778q0 58 43.5 101.5 t101.5 43.5q59 0 100.5 -42t41.5 -101q0 -63 -40 -103.5t-102 -40.5q-60 0 -102.5 41t-42.5 101zM577 1778q0 58 43.5 101.5t102.5 43.5t101 -42t42 -101q0 -63 -40.5 -103.5t-102.5 -40.5q-61 0 -103.5 41t-42.5 101z" />
<glyph unicode="&#xcc;" horiz-adv-x="635" d="M63 0l1 170q59 1 81.5 22t22.5 78v910q0 57 -22 77.5t-83 23.5v169h500v-170q-59 -2 -80.5 -23.5t-21.5 -76.5v-910q0 -56 22.5 -78t79.5 -22v-170h-500zM-15 1878q0 46 32 77t79 31q36 0 70 -20.5t85 -75.5l279 -295h-115l-325 162q-56 28 -80.5 56.5t-24.5 64.5z" />
<glyph unicode="&#xcd;" horiz-adv-x="635" d="M63 0l1 170q59 1 81.5 22t22.5 78v910q0 57 -22 77.5t-83 23.5v169h500v-170q-59 -2 -80.5 -23.5t-21.5 -76.5v-910q0 -56 22.5 -78t79.5 -22v-170h-500zM104 1595l279 295q51 55 85 75.5t70 20.5q47 0 79 -31t32 -77q0 -36 -24.5 -64.5t-80.5 -56.5l-325 -162h-115z" />
<glyph unicode="&#xce;" horiz-adv-x="635" d="M63 0l1 170q59 1 81.5 22t22.5 78v910q0 57 -22 77.5t-83 23.5v169h500v-170q-59 -2 -80.5 -23.5t-21.5 -76.5v-910q0 -56 22.5 -78t79.5 -22v-170h-500zM-5 1595l230 369h184l230 -369h-101l-221 170l-221 -170h-101z" />
<glyph unicode="&#xcf;" horiz-adv-x="635" d="M63 0l1 170q59 1 81.5 22t22.5 78v910q0 57 -22 77.5t-83 23.5v169h500v-170q-59 -2 -80.5 -23.5t-21.5 -76.5v-910q0 -56 22.5 -78t79.5 -22v-170h-500zM-23 1778q0 58 43.5 101.5t101.5 43.5q59 0 100.5 -42t41.5 -101q0 -63 -40 -103.5t-102 -40.5q-60 0 -102.5 41 t-42.5 101zM366 1778q0 58 43.5 101.5t102.5 43.5t101 -42t42 -101q0 -63 -40.5 -103.5t-102.5 -40.5q-61 0 -103.5 41t-42.5 101z" />
<glyph unicode="&#xd0;" horiz-adv-x="1067" d="M43 672v155h141v353q0 55 -23 77.5t-81 22.5v170h332q169 0 257.5 -19t151.5 -63q100 -70 142.5 -211.5t42.5 -431.5t-43.5 -430t-147.5 -211q-65 -45 -154.5 -64.5t-240.5 -19.5h-340v170q58 0 81 22.5t23 77.5v402h-141zM469 170h43q59 0 94 13.5t56 43.5 q30 45 42.5 138.5t12.5 359.5t-12.5 359.5t-42.5 138.5q-21 30 -56 43.5t-94 13.5h-43v-453h143v-155h-143v-502z" />
<glyph unicode="&#xd1;" horiz-adv-x="1139" d="M57 0l1 170q60 2 82 22.5t22 77.5v910q0 57 -22 77.5t-83 23.5v169h404l332 -932v662q0 55 -23.5 77.5t-81.5 22.5v170h402v-170q-61 -2 -83 -22.5t-22 -77.5v-1180h-268l-365 1028v-758q0 -55 23.5 -77.5t81.5 -22.5v-170h-400zM241 1624q27 135 84 200.5t148 65.5 q22 0 40.5 -2.5t37.5 -7.5l120 -33q5 -1 11 -2q25 -6 34 -6q36 0 59 22.5t38 71.5h82q-26 -130 -84 -198t-144 -68q-15 0 -31.5 2.5t-37.5 7.5l-117 31q-17 5 -31.5 7.5t-25.5 2.5q-39 0 -64 -24t-35 -70h-84z" />
<glyph unicode="&#xd2;" horiz-adv-x="977" d="M61 725q0 245 23 382.5t74 213.5q55 83 137 123.5t194 40.5t193.5 -40.5t136.5 -123.5q51 -76 73.5 -213t22.5 -383q0 -244 -22.5 -381t-73.5 -213q-55 -83 -136.5 -123.5t-193.5 -40.5t-194 40.5t-137 123.5q-51 76 -74 213t-23 381zM360 725q0 -385 28 -481.5 t101 -96.5t100 97t27 481q0 385 -27 482.5t-100 97.5t-101 -97.5t-28 -482.5zM157 1878q0 46 32 77t79 31q36 0 70 -20.5t85 -75.5l279 -295h-115l-325 162q-56 28 -80.5 56.5t-24.5 64.5z" />
<glyph unicode="&#xd3;" horiz-adv-x="977" d="M61 725q0 245 23 382.5t74 213.5q55 83 137 123.5t194 40.5t193.5 -40.5t136.5 -123.5q51 -76 73.5 -213t22.5 -383q0 -244 -22.5 -381t-73.5 -213q-55 -83 -136.5 -123.5t-193.5 -40.5t-194 40.5t-137 123.5q-51 76 -74 213t-23 381zM360 725q0 -385 28 -481.5 t101 -96.5t100 97t27 481q0 385 -27 482.5t-100 97.5t-101 -97.5t-28 -482.5zM276 1595l279 295q51 55 85 75.5t70 20.5q47 0 79 -31t32 -77q0 -36 -24.5 -64.5t-80.5 -56.5l-325 -162h-115z" />
<glyph unicode="&#xd4;" horiz-adv-x="977" d="M61 725q0 245 23 382.5t74 213.5q55 83 137 123.5t194 40.5t193.5 -40.5t136.5 -123.5q51 -76 73.5 -213t22.5 -383q0 -244 -22.5 -381t-73.5 -213q-55 -83 -136.5 -123.5t-193.5 -40.5t-194 40.5t-137 123.5q-51 76 -74 213t-23 381zM360 725q0 -385 28 -481.5 t101 -96.5t100 97t27 481q0 385 -27 482.5t-100 97.5t-101 -97.5t-28 -482.5zM167 1595l230 369h184l230 -369h-101l-221 170l-221 -170h-101z" />
<glyph unicode="&#xd5;" horiz-adv-x="977" d="M61 725q0 245 23 382.5t74 213.5q55 83 137 123.5t194 40.5t193.5 -40.5t136.5 -123.5q51 -76 73.5 -213t22.5 -383q0 -244 -22.5 -381t-73.5 -213q-55 -83 -136.5 -123.5t-193.5 -40.5t-194 40.5t-137 123.5q-51 76 -74 213t-23 381zM360 725q0 -385 28 -481.5 t101 -96.5t100 97t27 481q0 385 -27 482.5t-100 97.5t-101 -97.5t-28 -482.5zM161 1624q27 135 84 200.5t148 65.5q22 0 40.5 -2.5t37.5 -7.5l120 -33q5 -1 11 -2q25 -6 34 -6q36 0 59 22.5t38 71.5h82q-26 -130 -84 -198t-144 -68q-15 0 -31.5 2.5t-37.5 7.5l-117 31 q-17 5 -31.5 7.5t-25.5 2.5q-39 0 -64 -24t-35 -70h-84z" />
<glyph unicode="&#xd6;" horiz-adv-x="977" d="M61 725q0 245 23 382.5t74 213.5q55 83 137 123.5t194 40.5t193.5 -40.5t136.5 -123.5q51 -76 73.5 -213t22.5 -383q0 -244 -22.5 -381t-73.5 -213q-55 -83 -136.5 -123.5t-193.5 -40.5t-194 40.5t-137 123.5q-51 76 -74 213t-23 381zM360 725q0 -385 28 -481.5 t101 -96.5t100 97t27 481q0 385 -27 482.5t-100 97.5t-101 -97.5t-28 -482.5zM149 1778q0 58 43.5 101.5t101.5 43.5q59 0 100.5 -42t41.5 -101q0 -63 -40 -103.5t-102 -40.5q-60 0 -102.5 41t-42.5 101zM538 1778q0 58 43.5 101.5t102.5 43.5t101 -42t42 -101 q0 -63 -40.5 -103.5t-102.5 -40.5q-61 0 -103.5 41t-42.5 101z" />
<glyph unicode="&#xd7;" horiz-adv-x="1706" d="M287 152l458 458l-458 461l116 117l459 -459l461 459l117 -117l-459 -461l459 -458l-117 -119l-461 461l-459 -461z" />
<glyph unicode="&#xd8;" horiz-adv-x="977" d="M61 754q0 407 97.5 569t330.5 162q60 0 114 -14t104 -41l57 141h133l-96 -228q60 -59 87 -202.5t27 -415.5q0 -244 -22.5 -381t-73.5 -213q-56 -82 -138 -123t-192 -41q-68 0 -122 12.5t-101 38.5l-63 -170h-140l111 258q-61 61 -87 204.5t-26 443.5zM348 762 q0 -46 3 -179q1 -40 1 -61l256 634q-7 71 -38 110t-81 39q-80 0 -110.5 -98t-30.5 -445zM367 293q12 -74 42 -110t80 -36q77 0 107.5 94t30.5 359q0 82 -4 280v52z" />
<glyph unicode="&#xd9;" horiz-adv-x="1057" d="M45 1281v169h492v-170q-53 -3 -75 -25.5t-22 -74.5v-805q0 -141 30.5 -185.5t107.5 -44.5q80 0 113.5 52.5t33.5 187.5v795q0 53 -21 75t-73 26v169h383v-170q-60 -2 -82.5 -24t-22.5 -76v-779q0 -137 -16 -199.5t-53 -111.5q-46 -60 -123.5 -91.5t-177.5 -31.5 q-218 0 -303.5 98.5t-85.5 362.5v752q0 57 -22 77.5t-83 23.5zM213 1878q0 46 32 77t79 31q36 0 70 -20.5t85 -75.5l279 -295h-115l-325 162q-56 28 -80.5 56.5t-24.5 64.5z" />
<glyph unicode="&#xda;" horiz-adv-x="1057" d="M45 1281v169h492v-170q-53 -3 -75 -25.5t-22 -74.5v-805q0 -141 30.5 -185.5t107.5 -44.5q80 0 113.5 52.5t33.5 187.5v795q0 53 -21 75t-73 26v169h383v-170q-60 -2 -82.5 -24t-22.5 -76v-779q0 -137 -16 -199.5t-53 -111.5q-46 -60 -123.5 -91.5t-177.5 -31.5 q-218 0 -303.5 98.5t-85.5 362.5v752q0 57 -22 77.5t-83 23.5zM332 1595l279 295q51 55 85 75.5t70 20.5q47 0 79 -31t32 -77q0 -36 -24.5 -64.5t-80.5 -56.5l-325 -162h-115z" />
<glyph unicode="&#xdb;" horiz-adv-x="1057" d="M45 1281v169h492v-170q-53 -3 -75 -25.5t-22 -74.5v-805q0 -141 30.5 -185.5t107.5 -44.5q80 0 113.5 52.5t33.5 187.5v795q0 53 -21 75t-73 26v169h383v-170q-60 -2 -82.5 -24t-22.5 -76v-779q0 -137 -16 -199.5t-53 -111.5q-46 -60 -123.5 -91.5t-177.5 -31.5 q-218 0 -303.5 98.5t-85.5 362.5v752q0 57 -22 77.5t-83 23.5zM223 1595l230 369h184l230 -369h-101l-221 170l-221 -170h-101z" />
<glyph unicode="&#xdc;" horiz-adv-x="1057" d="M45 1281v169h492v-170q-53 -3 -75 -25.5t-22 -74.5v-805q0 -141 30.5 -185.5t107.5 -44.5q80 0 113.5 52.5t33.5 187.5v795q0 53 -21 75t-73 26v169h383v-170q-60 -2 -82.5 -24t-22.5 -76v-779q0 -137 -16 -199.5t-53 -111.5q-46 -60 -123.5 -91.5t-177.5 -31.5 q-218 0 -303.5 98.5t-85.5 362.5v752q0 57 -22 77.5t-83 23.5zM205 1778q0 58 43.5 101.5t101.5 43.5q59 0 100.5 -42t41.5 -101q0 -63 -40 -103.5t-102 -40.5q-60 0 -102.5 41t-42.5 101zM594 1778q0 58 43.5 101.5t102.5 43.5t101 -42t42 -101q0 -63 -40.5 -103.5 t-102.5 -40.5q-61 0 -103.5 41t-42.5 101z" />
<glyph unicode="&#xdd;" horiz-adv-x="963" d="M8 1280v170h488v-170q-43 -2 -63.5 -14t-20.5 -35q0 -6 2 -15l2 -6l121 -379l114 379l2 6q2 9 2 15q0 24 -23 36.5t-69 12.5v170h393v-170h-22q-36 0 -52 -11t-30 -52l-219 -605v-342q0 -53 22.5 -76.5t73.5 -23.5h43v-170h-567v170h31q60 0 83 21t23 79v342l-231 615 q-14 33 -30 44t-46 11q-4 0 -12.5 -1t-14.5 -1zM268 1595l279 295q51 55 85 75.5t70 20.5q47 0 79 -31t32 -77q0 -36 -24.5 -64.5t-80.5 -56.5l-325 -162h-115z" />
<glyph unicode="&#xde;" horiz-adv-x="1038" d="M57 0l1 170q60 2 82 22.5t22 77.5v910q0 57 -22 77.5t-83 23.5v169h498v-170q-61 -2 -82.5 -22.5t-21.5 -77.5v-29h63q261 0 368 -95.5t107 -322.5q0 -203 -101.5 -298t-320.5 -95q-27 0 -56 1.5t-60 4.5v-76q0 -58 22 -79t82 -21h29v-170h-527zM451 516h73 q98 0 141.5 54.5t43.5 177.5t-43.5 177t-141.5 54h-73v-463z" />
<glyph unicode="&#xdf;" horiz-adv-x="981" d="M39 0v147q60 0 77 15t17 74v794q0 221 93 334t276 113q165 0 262.5 -85t97.5 -227q0 -114 -49 -190t-143 -107q113 -3 181.5 -121t68.5 -315q0 -210 -89 -338.5t-231 -128.5q-52 0 -92.5 15t-75.5 47l57 120q18 -12 32 -18t26 -6q43 0 60.5 55t17.5 211q0 259 -34 363 t-114 104h-16v139q95 7 136.5 44t41.5 116q0 90 -37 137t-106 47q-63 0 -98.5 -38t-35.5 -105q0 -20 13.5 -107.5t13.5 -158.5v-930h-350z" />
<glyph unicode="&#xe0;" horiz-adv-x="1034" d="M53 246q0 113 60 188t233 160q148 72 188.5 121.5t40.5 126.5q0 74 -46 118t-123 44q-51 0 -90.5 -16.5t-67.5 -49.5q2 0 5 1q19 3 28 3q56 0 91.5 -37.5t35.5 -97.5q0 -62 -42.5 -101.5t-109.5 -39.5q-74 0 -119 45.5t-45 122.5q0 133 103.5 217t271.5 84 q121 0 201.5 -37t128.5 -113q18 -29 26 -85t8 -165v-538q0 -37 7 -49.5t24 -12.5q25 0 35 29t10 108v47h99v-79q0 -138 -55 -204.5t-169 -66.5q-76 0 -122.5 39.5t-67.5 122.5q-44 -81 -110 -121.5t-152 -40.5q-128 0 -202.5 75t-74.5 202zM322 283q0 -55 29 -87t77 -32 q71 0 106 65t35 195v145q-160 -106 -203.5 -162t-43.5 -124zM160 1530q0 46 32 77t79 31q36 0 70 -20.5t85 -75.5l279 -295h-115l-325 162q-56 28 -80.5 56.5t-24.5 64.5z" />
<glyph unicode="&#xe1;" horiz-adv-x="1034" d="M53 246q0 113 60 188t233 160q148 72 188.5 121.5t40.5 126.5q0 74 -46 118t-123 44q-51 0 -90.5 -16.5t-67.5 -49.5q2 0 5 1q19 3 28 3q56 0 91.5 -37.5t35.5 -97.5q0 -62 -42.5 -101.5t-109.5 -39.5q-74 0 -119 45.5t-45 122.5q0 133 103.5 217t271.5 84 q121 0 201.5 -37t128.5 -113q18 -29 26 -85t8 -165v-538q0 -37 7 -49.5t24 -12.5q25 0 35 29t10 108v47h99v-79q0 -138 -55 -204.5t-169 -66.5q-76 0 -122.5 39.5t-67.5 122.5q-44 -81 -110 -121.5t-152 -40.5q-128 0 -202.5 75t-74.5 202zM322 283q0 -55 29 -87t77 -32 q71 0 106 65t35 195v145q-160 -106 -203.5 -162t-43.5 -124zM279 1247l279 295q51 55 85 75.5t70 20.5q47 0 79 -31t32 -77q0 -36 -24.5 -64.5t-80.5 -56.5l-325 -162h-115z" />
<glyph unicode="&#xe2;" horiz-adv-x="1034" d="M53 246q0 113 60 188t233 160q148 72 188.5 121.5t40.5 126.5q0 74 -46 118t-123 44q-51 0 -90.5 -16.5t-67.5 -49.5q2 0 5 1q19 3 28 3q56 0 91.5 -37.5t35.5 -97.5q0 -62 -42.5 -101.5t-109.5 -39.5q-74 0 -119 45.5t-45 122.5q0 133 103.5 217t271.5 84 q121 0 201.5 -37t128.5 -113q18 -29 26 -85t8 -165v-538q0 -37 7 -49.5t24 -12.5q25 0 35 29t10 108v47h99v-79q0 -138 -55 -204.5t-169 -66.5q-76 0 -122.5 39.5t-67.5 122.5q-44 -81 -110 -121.5t-152 -40.5q-128 0 -202.5 75t-74.5 202zM322 283q0 -55 29 -87t77 -32 q71 0 106 65t35 195v145q-160 -106 -203.5 -162t-43.5 -124zM170 1247l230 369h184l230 -369h-101l-221 170l-221 -170h-101z" />
<glyph unicode="&#xe3;" horiz-adv-x="1034" d="M53 246q0 113 60 188t233 160q148 72 188.5 121.5t40.5 126.5q0 74 -46 118t-123 44q-51 0 -90.5 -16.5t-67.5 -49.5q2 0 5 1q19 3 28 3q56 0 91.5 -37.5t35.5 -97.5q0 -62 -42.5 -101.5t-109.5 -39.5q-74 0 -119 45.5t-45 122.5q0 133 103.5 217t271.5 84 q121 0 201.5 -37t128.5 -113q18 -29 26 -85t8 -165v-538q0 -37 7 -49.5t24 -12.5q25 0 35 29t10 108v47h99v-79q0 -138 -55 -204.5t-169 -66.5q-76 0 -122.5 39.5t-67.5 122.5q-44 -81 -110 -121.5t-152 -40.5q-128 0 -202.5 75t-74.5 202zM322 283q0 -55 29 -87t77 -32 q71 0 106 65t35 195v145q-160 -106 -203.5 -162t-43.5 -124zM164 1276q27 135 84 200.5t148 65.5q22 0 40.5 -2.5t37.5 -7.5l120 -33q5 -1 11 -2q25 -6 34 -6q36 0 59 22.5t38 71.5h82q-26 -130 -84 -198t-144 -68q-15 0 -31.5 2.5t-37.5 7.5l-117 31q-17 5 -31.5 7.5 t-25.5 2.5q-39 0 -64 -24t-35 -70h-84z" />
<glyph unicode="&#xe4;" horiz-adv-x="1034" d="M53 246q0 113 60 188t233 160q148 72 188.5 121.5t40.5 126.5q0 74 -46 118t-123 44q-51 0 -90.5 -16.5t-67.5 -49.5q2 0 5 1q19 3 28 3q56 0 91.5 -37.5t35.5 -97.5q0 -62 -42.5 -101.5t-109.5 -39.5q-74 0 -119 45.5t-45 122.5q0 133 103.5 217t271.5 84 q121 0 201.5 -37t128.5 -113q18 -29 26 -85t8 -165v-538q0 -37 7 -49.5t24 -12.5q25 0 35 29t10 108v47h99v-79q0 -138 -55 -204.5t-169 -66.5q-76 0 -122.5 39.5t-67.5 122.5q-44 -81 -110 -121.5t-152 -40.5q-128 0 -202.5 75t-74.5 202zM322 283q0 -55 29 -87t77 -32 q71 0 106 65t35 195v145q-160 -106 -203.5 -162t-43.5 -124zM152 1430q0 58 43.5 101.5t101.5 43.5q59 0 100.5 -42t41.5 -101q0 -63 -40 -103.5t-102 -40.5q-60 0 -102.5 41t-42.5 101zM541 1430q0 58 43.5 101.5t102.5 43.5t101 -42t42 -101q0 -63 -40.5 -103.5 t-102.5 -40.5q-61 0 -103.5 41t-42.5 101z" />
<glyph unicode="&#xe5;" horiz-adv-x="1034" d="M53 246q0 113 60 188t233 160q148 72 188.5 121.5t40.5 126.5q0 74 -46 118t-123 44q-51 0 -90.5 -16.5t-67.5 -49.5q2 0 5 1q19 3 28 3q56 0 91.5 -37.5t35.5 -97.5q0 -62 -42.5 -101.5t-109.5 -39.5q-74 0 -119 45.5t-45 122.5q0 133 103.5 217t271.5 84 q121 0 201.5 -37t128.5 -113q18 -29 26 -85t8 -165v-538q0 -37 7 -49.5t24 -12.5q25 0 35 29t10 108v47h99v-79q0 -138 -55 -204.5t-169 -66.5q-76 0 -122.5 39.5t-67.5 122.5q-44 -81 -110 -121.5t-152 -40.5q-128 0 -202.5 75t-74.5 202zM248 1466q0 111 77 189t187 78 q112 0 189 -77.5t77 -189.5t-77 -189t-189 -77t-188 77t-76 189zM322 283q0 -55 29 -87t77 -32q71 0 106 65t35 195v145q-160 -106 -203.5 -162t-43.5 -124zM391 1466q0 -52 34.5 -86t86.5 -34q51 0 87 35t36 85q0 51 -36 87t-87 36t-86 -35.5t-35 -87.5z" />
<glyph unicode="&#xe6;" horiz-adv-x="1384" d="M53 246q0 113 60 188t233 160q148 72 188.5 121.5t40.5 126.5q0 74 -46 118t-123 44q-51 0 -90.5 -16.5t-67.5 -49.5q2 0 5 1q19 3 28 3q56 0 91.5 -37.5t35.5 -97.5q0 -62 -42.5 -101.5t-109.5 -39.5q-74 0 -119 45.5t-45 122.5q0 133 103.5 217t271.5 84q88 0 154 -20 t108 -58q52 41 105.5 59.5t126.5 18.5q165 0 259.5 -121.5t94.5 -335.5v-162h-496v-63q0 -165 40 -240.5t126 -75.5q70 0 104.5 50.5t34.5 152.5v100h191v-63q0 -208 -83.5 -308t-256.5 -100q-126 0 -215 49.5t-133 143.5q-59 -99 -131.5 -146t-165.5 -47q-128 0 -202.5 75 t-74.5 202zM322 283q0 -55 29 -87t77 -32q71 0 106 65t35 195v145q-160 -106 -203.5 -162t-43.5 -124zM820 678h249v33q0 163 -25 220.5t-88 57.5q-71 0 -102 -67.5t-34 -243.5z" />
<glyph unicode="&#xe7;" horiz-adv-x="848" d="M59 545q0 291 102 440.5t302 149.5q145 0 232 -89.5t87 -238.5q0 -95 -42 -147t-119 -52q-67 0 -107.5 39.5t-40.5 104.5q0 64 32 101.5t87 37.5h8q0 46 -27 72t-73 26q-90 0 -129 -104t-39 -346q0 -229 32 -315.5t111 -86.5q60 0 90.5 48.5t30.5 144.5v129h186v-82 q0 -213 -78 -310.5t-247 -97.5q-205 0 -301.5 139.5t-96.5 436.5zM141 -377l49 101q67 -38 126.5 -57t111.5 -19q39 0 62.5 20.5t23.5 55.5q0 39 -24 60t-68 21q-15 0 -30 -2t-32 -6l31 203h88l-18 -110q23 2 33.5 2.5t19.5 1.5q86 0 136 -46.5t50 -126.5 q0 -87 -60.5 -137.5t-166.5 -50.5q-62 0 -139.5 21t-192.5 69z" />
<glyph unicode="&#xe8;" horiz-adv-x="883" d="M57 559q0 279 103 427.5t297 148.5q171 0 263.5 -118.5t92.5 -338.5v-162h-481v-63q0 -162 39 -239t121 -77q62 0 96.5 52.5t34.5 150.5v100h190v-63q0 -208 -83.5 -308t-256.5 -100q-214 0 -315 143t-101 447zM332 678h227v33q0 161 -23 219.5t-81 58.5q-64 0 -92 -69 t-31 -242zM129 1530q0 46 32 77t79 31q36 0 70 -20.5t85 -75.5l279 -295h-115l-325 162q-56 28 -80.5 56.5t-24.5 64.5z" />
<glyph unicode="&#xe9;" horiz-adv-x="883" d="M57 559q0 279 103 427.5t297 148.5q171 0 263.5 -118.5t92.5 -338.5v-162h-481v-63q0 -162 39 -239t121 -77q62 0 96.5 52.5t34.5 150.5v100h190v-63q0 -208 -83.5 -308t-256.5 -100q-214 0 -315 143t-101 447zM332 678h227v33q0 161 -23 219.5t-81 58.5q-64 0 -92 -69 t-31 -242zM248 1247l279 295q51 55 85 75.5t70 20.5q47 0 79 -31t32 -77q0 -36 -24.5 -64.5t-80.5 -56.5l-325 -162h-115z" />
<glyph unicode="&#xea;" horiz-adv-x="883" d="M57 559q0 279 103 427.5t297 148.5q171 0 263.5 -118.5t92.5 -338.5v-162h-481v-63q0 -162 39 -239t121 -77q62 0 96.5 52.5t34.5 150.5v100h190v-63q0 -208 -83.5 -308t-256.5 -100q-214 0 -315 143t-101 447zM332 678h227v33q0 161 -23 219.5t-81 58.5q-64 0 -92 -69 t-31 -242zM139 1247l230 369h184l230 -369h-101l-221 170l-221 -170h-101z" />
<glyph unicode="&#xeb;" horiz-adv-x="883" d="M57 559q0 279 103 427.5t297 148.5q171 0 263.5 -118.5t92.5 -338.5v-162h-481v-63q0 -162 39 -239t121 -77q62 0 96.5 52.5t34.5 150.5v100h190v-63q0 -208 -83.5 -308t-256.5 -100q-214 0 -315 143t-101 447zM332 678h227v33q0 161 -23 219.5t-81 58.5q-64 0 -92 -69 t-31 -242zM121 1430q0 58 43.5 101.5t101.5 43.5q59 0 100.5 -42t41.5 -101q0 -63 -40 -103.5t-102 -40.5q-60 0 -102.5 41t-42.5 101zM510 1430q0 58 43.5 101.5t102.5 43.5t101 -42t42 -101q0 -63 -40.5 -103.5t-102.5 -40.5q-61 0 -103.5 41t-42.5 101z" />
<glyph unicode="&#xec;" horiz-adv-x="514" d="M31 0v147h16q56 0 72 15.5t16 73.5v632q0 60 -18 75t-86 15v146h368v-868q0 -59 18 -74t89 -15v-147h-475zM-74 1530q0 46 32 77t79 31q36 0 70 -20.5t85 -75.5l279 -295h-115l-325 162q-56 28 -80.5 56.5t-24.5 64.5z" />
<glyph unicode="&#xed;" horiz-adv-x="514" d="M31 0v147h16q56 0 72 15.5t16 73.5v632q0 60 -18 75t-86 15v146h368v-868q0 -59 18 -74t89 -15v-147h-475zM45 1247l279 295q51 55 85 75.5t70 20.5q47 0 79 -31t32 -77q0 -36 -24.5 -64.5t-80.5 -56.5l-325 -162h-115z" />
<glyph unicode="&#xee;" horiz-adv-x="514" d="M31 0v147h16q56 0 72 15.5t16 73.5v632q0 60 -18 75t-86 15v146h368v-868q0 -59 18 -74t89 -15v-147h-475zM-64 1247l230 369h184l230 -369h-101l-221 170l-221 -170h-101z" />
<glyph unicode="&#xef;" horiz-adv-x="514" d="M31 0v147h16q56 0 72 15.5t16 73.5v632q0 60 -18 75t-86 15v146h368v-868q0 -59 18 -74t89 -15v-147h-475zM-82 1430q0 58 43.5 101.5t101.5 43.5q59 0 100.5 -42t41.5 -101q0 -63 -40 -103.5t-102 -40.5q-60 0 -102.5 41t-42.5 101zM307 1430q0 58 43.5 101.5 t102.5 43.5t101 -42t42 -101q0 -63 -40.5 -103.5t-102.5 -40.5q-61 0 -103.5 41t-42.5 101z" />
<glyph unicode="&#xf0;" horiz-adv-x="872" d="M57 494q0 267 85.5 394.5t263.5 127.5q28 0 48.5 -2.5t36.5 -7.5q-13 41 -28.5 79t-34.5 74l-242 -84l-34 103l217 69q-27 47 -60.5 91t-72.5 83l133 68q50 -47 92 -91.5t78 -88.5l227 77l35 -102l-191 -65q105 -141 155 -320t50 -412q0 -266 -92 -392t-287 -126 q-197 0 -288 126t-91 399zM332 485q0 -222 22.5 -288t81.5 -66t82 70.5t23 283.5q0 214 -23 285.5t-82 71.5t-81.5 -67t-22.5 -290z" />
<glyph unicode="&#xf1;" horiz-adv-x="1006" d="M39 0v147q61 0 78.5 15.5t17.5 73.5v632q0 58 -18 74t-78 16v146h352v-141q52 89 116 131.5t146 42.5q119 0 174.5 -79t55.5 -249v-573q0 -59 17.5 -74t78.5 -15v-147h-432v147q45 4 58 19t13 70v581q0 56 -19.5 83.5t-59.5 27.5q-63 0 -101.5 -61.5t-38.5 -164.5v-466 q0 -56 14 -71t58 -18v-147h-432zM176 1276q27 135 84 200.5t148 65.5q22 0 40.5 -2.5t37.5 -7.5l120 -33q5 -1 11 -2q25 -6 34 -6q36 0 59 22.5t38 71.5h82q-26 -130 -84 -198t-144 -68q-15 0 -31.5 2.5t-37.5 7.5l-117 31q-17 5 -31.5 7.5t-25.5 2.5q-39 0 -64 -24t-35 -70 h-84z" />
<glyph unicode="&#xf2;" horiz-adv-x="872" d="M57 553q0 302 91.5 442t287.5 140t287.5 -140t91.5 -442t-91.5 -443t-287.5 -141t-287.5 141t-91.5 443zM332 553q0 -285 22 -353.5t82 -68.5t82.5 74t22.5 348t-22.5 348t-82.5 74t-82 -68.5t-22 -353.5zM104 1530q0 46 32 77t79 31q36 0 70 -20.5t85 -75.5l279 -295 h-115l-325 162q-56 28 -80.5 56.5t-24.5 64.5z" />
<glyph unicode="&#xf3;" horiz-adv-x="872" d="M57 553q0 302 91.5 442t287.5 140t287.5 -140t91.5 -442t-91.5 -443t-287.5 -141t-287.5 141t-91.5 443zM332 553q0 -285 22 -353.5t82 -68.5t82.5 74t22.5 348t-22.5 348t-82.5 74t-82 -68.5t-22 -353.5zM223 1247l279 295q51 55 85 75.5t70 20.5q47 0 79 -31t32 -77 q0 -36 -24.5 -64.5t-80.5 -56.5l-325 -162h-115z" />
<glyph unicode="&#xf4;" horiz-adv-x="872" d="M57 553q0 302 91.5 442t287.5 140t287.5 -140t91.5 -442t-91.5 -443t-287.5 -141t-287.5 141t-91.5 443zM332 553q0 -285 22 -353.5t82 -68.5t82.5 74t22.5 348t-22.5 348t-82.5 74t-82 -68.5t-22 -353.5zM114 1247l230 369h184l230 -369h-101l-221 170l-221 -170h-101z " />
<glyph unicode="&#xf5;" horiz-adv-x="872" d="M57 553q0 302 91.5 442t287.5 140t287.5 -140t91.5 -442t-91.5 -443t-287.5 -141t-287.5 141t-91.5 443zM332 553q0 -285 22 -353.5t82 -68.5t82.5 74t22.5 348t-22.5 348t-82.5 74t-82 -68.5t-22 -353.5zM108 1276q27 135 84 200.5t148 65.5q22 0 40.5 -2.5t37.5 -7.5 l120 -33q5 -1 11 -2q25 -6 34 -6q36 0 59 22.5t38 71.5h82q-26 -130 -84 -198t-144 -68q-15 0 -31.5 2.5t-37.5 7.5l-117 31q-17 5 -31.5 7.5t-25.5 2.5q-39 0 -64 -24t-35 -70h-84z" />
<glyph unicode="&#xf6;" horiz-adv-x="872" d="M57 553q0 302 91.5 442t287.5 140t287.5 -140t91.5 -442t-91.5 -443t-287.5 -141t-287.5 141t-91.5 443zM332 553q0 -285 22 -353.5t82 -68.5t82.5 74t22.5 348t-22.5 348t-82.5 74t-82 -68.5t-22 -353.5zM96 1430q0 58 43.5 101.5t101.5 43.5q59 0 100.5 -42t41.5 -101 q0 -63 -40 -103.5t-102 -40.5q-60 0 -102.5 41t-42.5 101zM485 1430q0 58 43.5 101.5t102.5 43.5t101 -42t42 -101q0 -63 -40.5 -103.5t-102.5 -40.5q-61 0 -103.5 41t-42.5 101z" />
<glyph unicode="&#xf7;" horiz-adv-x="1706" d="M254 528v166h1198v-166h-1198zM717 229q0 57 40.5 97.5t96.5 40.5q57 0 97 -40.5t40 -97.5q0 -56 -39.5 -95.5t-97.5 -39.5t-97.5 39t-39.5 96zM717 989q0 57 40.5 98t96.5 41q57 0 97 -41t40 -98q0 -56 -39.5 -95.5t-97.5 -39.5t-97.5 39t-39.5 96z" />
<glyph unicode="&#xf8;" horiz-adv-x="872" d="M57 545q0 307 91 448.5t288 141.5q49 0 85 -6.5t67 -20.5l84 215h108l-106 -274q71 -55 106 -177t35 -319q0 -302 -91.5 -443t-287.5 -141q-34 0 -75 8t-89 23l-84 -221h-108l104 282q-65 79 -96 195.5t-31 288.5zM324 647q0 -63 3 -219q0 -24 1 -37l196 509 q-7 27 -31.5 45t-56.5 18q-63 0 -87.5 -65.5t-24.5 -250.5zM340 223q11 -39 35 -59.5t61 -20.5q62 0 87.5 71t25.5 255q0 58 -1.5 128.5t-4.5 151.5z" />
<glyph unicode="&#xf9;" horiz-adv-x="995" d="M31 958v146h360v-815q0 -58 19 -85.5t59 -27.5q63 0 101 61.5t38 163.5v467q0 61 -17 75.5t-77 14.5v146h360v-868q0 -60 17.5 -74.5t77.5 -14.5v-147h-351v141q-51 -88 -114.5 -130t-147.5 -42q-119 0 -175 78.5t-56 247.5v573q0 59 -17.5 74.5t-76.5 15.5zM166 1530 q0 46 32 77t79 31q36 0 70 -20.5t85 -75.5l279 -295h-115l-325 162q-56 28 -80.5 56.5t-24.5 64.5z" />
<glyph unicode="&#xfa;" horiz-adv-x="995" d="M31 958v146h360v-815q0 -58 19 -85.5t59 -27.5q63 0 101 61.5t38 163.5v467q0 61 -17 75.5t-77 14.5v146h360v-868q0 -60 17.5 -74.5t77.5 -14.5v-147h-351v141q-51 -88 -114.5 -130t-147.5 -42q-119 0 -175 78.5t-56 247.5v573q0 59 -17.5 74.5t-76.5 15.5zM285 1247 l279 295q51 55 85 75.5t70 20.5q47 0 79 -31t32 -77q0 -36 -24.5 -64.5t-80.5 -56.5l-325 -162h-115z" />
<glyph unicode="&#xfb;" horiz-adv-x="995" d="M31 958v146h360v-815q0 -58 19 -85.5t59 -27.5q63 0 101 61.5t38 163.5v467q0 61 -17 75.5t-77 14.5v146h360v-868q0 -60 17.5 -74.5t77.5 -14.5v-147h-351v141q-51 -88 -114.5 -130t-147.5 -42q-119 0 -175 78.5t-56 247.5v573q0 59 -17.5 74.5t-76.5 15.5zM176 1247 l230 369h184l230 -369h-101l-221 170l-221 -170h-101z" />
<glyph unicode="&#xfc;" horiz-adv-x="995" d="M31 958v146h360v-815q0 -58 19 -85.5t59 -27.5q63 0 101 61.5t38 163.5v467q0 61 -17 75.5t-77 14.5v146h360v-868q0 -60 17.5 -74.5t77.5 -14.5v-147h-351v141q-51 -88 -114.5 -130t-147.5 -42q-119 0 -175 78.5t-56 247.5v573q0 59 -17.5 74.5t-76.5 15.5zM158 1430 q0 58 43.5 101.5t101.5 43.5q59 0 100.5 -42t41.5 -101q0 -63 -40 -103.5t-102 -40.5q-60 0 -102.5 41t-42.5 101zM547 1430q0 58 43.5 101.5t102.5 43.5t101 -42t42 -101q0 -63 -40.5 -103.5t-102.5 -40.5q-61 0 -103.5 41t-42.5 101z" />
<glyph unicode="&#xfd;" horiz-adv-x="834" d="M-41 -156q0 71 38.5 113.5t102.5 42.5q58 0 92.5 -34t34.5 -91q0 -50 -25 -78.5t-75 -34.5q11 -14 24 -21t29 -7q48 0 85 58t69 183l-256 918q-10 35 -28 50t-50 15h-6v146h440v-146q-48 0 -67 -11.5t-19 -39.5q0 -5 1 -13l3 -21l109 -511l127 511q2 7 3 15t1 19 q0 27 -20.5 39t-65.5 12v146h338v-145q-39 -5 -60 -21.5t-30 -50.5l-260 -903q-60 -205 -130.5 -290t-177.5 -85q-108 0 -167.5 62t-59.5 173zM205 1247l279 295q51 55 85 75.5t70 20.5q47 0 79 -31t32 -77q0 -36 -24.5 -64.5t-80.5 -56.5l-325 -162h-115z" />
<glyph unicode="&#xfe;" horiz-adv-x="952" d="M39 -209q60 0 78 16t18 74v1333q0 59 -18 75t-78 16v145h360v-440q49 64 100 94.5t111 30.5q134 0 209.5 -153.5t75.5 -428.5q0 -283 -78 -433.5t-223 -150.5q-63 0 -112 28t-83 83v-199q0 -56 15.5 -73t56.5 -17h37v-147h-469v147zM399 553q0 -238 25.5 -314.5 t91.5 -76.5t91.5 76.5t25.5 314.5q0 234 -26 313.5t-91 79.5t-91 -77.5t-26 -315.5z" />
<glyph unicode="&#xff;" horiz-adv-x="834" d="M-41 -156q0 71 38.5 113.5t102.5 42.5q58 0 92.5 -34t34.5 -91q0 -50 -25 -78.5t-75 -34.5q11 -14 24 -21t29 -7q48 0 85 58t69 183l-256 918q-10 35 -28 50t-50 15h-6v146h440v-146q-48 0 -67 -11.5t-19 -39.5q0 -5 1 -13l3 -21l109 -511l127 511q2 7 3 15t1 19 q0 27 -20.5 39t-65.5 12v146h338v-145q-39 -5 -60 -21.5t-30 -50.5l-260 -903q-60 -205 -130.5 -290t-177.5 -85q-108 0 -167.5 62t-59.5 173zM78 1430q0 58 43.5 101.5t101.5 43.5q59 0 100.5 -42t41.5 -101q0 -63 -40 -103.5t-102 -40.5q-60 0 -102.5 41t-42.5 101z M467 1430q0 58 43.5 101.5t102.5 43.5t101 -42t42 -101q0 -63 -40.5 -103.5t-102.5 -40.5q-61 0 -103.5 41t-42.5 101z" />
<glyph unicode="&#x131;" horiz-adv-x="514" d="M31 0v147h16q56 0 72 15.5t16 73.5v632q0 60 -18 75t-86 15v146h368v-868q0 -59 18 -74t89 -15v-147h-475z" />
<glyph unicode="&#x152;" horiz-adv-x="1536" d="M68 725q0 245 22 379t72 207q54 80 136 118.5t196 38.5q36 0 116 -9t123 -9h713v-489h-146q-9 185 -68 252t-208 67h-100v-451h10q75 0 105.5 44t33.5 163h131v-575h-131q-2 124 -32 169.5t-107 45.5h-10v-506h100q160 0 218 80t58 315h146v-565h-713q-49 0 -129 -9 t-110 -9q-112 0 -194.5 40t-137.5 121q-50 75 -72 207.5t-22 374.5zM367 725q0 -384 30 -476.5t111 -92.5q69 0 97 54.5t28 197.5v636q0 143 -28 197.5t-97 54.5q-81 0 -111 -93t-30 -478z" />
<glyph unicode="&#x153;" horiz-adv-x="1370" d="M57 553q0 302 91.5 442t287.5 140q86 0 150 -25.5t106 -75.5q54 51 116.5 76t137.5 25q167 0 260.5 -121t93.5 -336v-162h-495v-63q0 -161 42 -238.5t130 -77.5q65 0 99 52t34 151v100h190v-63q0 -208 -83 -308t-256 -100q-95 0 -159 22t-118 72q-47 -47 -108.5 -70.5 t-139.5 -23.5q-196 0 -287.5 141t-91.5 443zM332 547q0 -279 23 -345.5t85 -66.5q61 0 84 70.5t23 347.5q0 276 -23 347t-84 71q-62 0 -85 -66t-23 -358zM805 678h252v33q0 162 -26 220t-91 58q-71 0 -100.5 -63.5t-34.5 -247.5z" />
<glyph unicode="&#x178;" horiz-adv-x="963" d="M8 1280v170h488v-170q-43 -2 -63.5 -14t-20.5 -35q0 -6 2 -15l2 -6l121 -379l114 379l2 6q2 9 2 15q0 24 -23 36.5t-69 12.5v170h393v-170h-22q-36 0 -52 -11t-30 -52l-219 -605v-342q0 -53 22.5 -76.5t73.5 -23.5h43v-170h-567v170h31q60 0 83 21t23 79v342l-231 615 q-14 33 -30 44t-46 11q-4 0 -12.5 -1t-14.5 -1zM141 1778q0 58 43.5 101.5t101.5 43.5q59 0 100.5 -42t41.5 -101q0 -63 -40 -103.5t-102 -40.5q-60 0 -102.5 41t-42.5 101zM530 1778q0 58 43.5 101.5t102.5 43.5t101 -42t42 -101q0 -63 -40.5 -103.5t-102.5 -40.5 q-61 0 -103.5 41t-42.5 101z" />
<glyph unicode="&#x2c6;" d="M190 1247l230 369h184l230 -369h-101l-221 170l-221 -170h-101z" />
<glyph unicode="&#x2dc;" d="M184 1276q27 135 84 200.5t148 65.5q22 0 40.5 -2.5t37.5 -7.5l120 -33q5 -1 11 -2q25 -6 34 -6q36 0 59 22.5t38 71.5h82q-26 -130 -84 -198t-144 -68q-15 0 -31.5 2.5t-37.5 7.5l-117 31q-17 5 -31.5 7.5t-25.5 2.5q-39 0 -64 -24t-35 -70h-84z" />
<glyph unicode="&#x2013;" d="M0 479v170h1024v-170h-1024z" />
<glyph unicode="&#x2014;" horiz-adv-x="2048" d="M0 479v170h2048v-170h-2048z" />
<glyph unicode="&#x2018;" horiz-adv-x="473" d="M72 1102q0 117 71.5 217t202.5 166l64 -109q-61 -35 -106 -76t-75 -90h21q71 0 109 -38t38 -109q0 -68 -46 -115t-113 -47q-78 0 -122 54t-44 147z" />
<glyph unicode="&#x2019;" horiz-adv-x="473" d="M63 1010q62 35 106 76t73 90q-4 0 -12.5 -1t-12.5 -1q-67 0 -105 37.5t-38 103.5q0 73 45.5 121.5t113.5 48.5q78 0 123 -54t45 -147q0 -116 -72.5 -216.5t-203.5 -166.5z" />
<glyph unicode="&#x201a;" horiz-adv-x="473" d="M59 -172q61 35 106 76.5t75 89.5h-21q-70 0 -108.5 36.5t-38.5 102.5q0 72 45 120t114 48q78 0 122 -53.5t44 -147.5q0 -116 -71.5 -215.5t-202.5 -165.5z" />
<glyph unicode="&#x201c;" horiz-adv-x="891" d="M72 1102q0 117 71.5 217t202.5 166l64 -109q-61 -35 -106 -76t-75 -90h21q71 0 109 -38t38 -109q0 -68 -46 -115t-113 -47q-78 0 -122 54t-44 147zM487 1102q0 116 72.5 216.5t204.5 166.5l61 -109q-59 -34 -103.5 -75t-74.5 -91h21q71 0 109 -38t38 -109q0 -68 -46 -115 t-114 -47q-77 0 -122.5 54t-45.5 147z" />
<glyph unicode="&#x201d;" horiz-adv-x="891" d="M63 1010q62 35 106 76t73 90q-4 0 -12.5 -1t-12.5 -1q-67 0 -105 37.5t-38 103.5q0 73 45.5 121.5t113.5 48.5q78 0 123 -54t45 -147q0 -116 -72.5 -216.5t-203.5 -166.5zM479 1010q63 36 107.5 77t72.5 89q-4 0 -12 -1t-12 -1q-67 0 -106.5 38t-39.5 103q0 73 46 121.5 t114 48.5q78 0 123 -54t45 -147q0 -116 -72.5 -216.5t-203.5 -166.5z" />
<glyph unicode="&#x201e;" horiz-adv-x="891" d="M59 -172q61 35 106 76.5t75 89.5h-21q-70 0 -108.5 36.5t-38.5 102.5q0 72 45 120t114 48q78 0 122 -53.5t44 -147.5q0 -116 -71.5 -215.5t-202.5 -165.5zM477 -172q61 35 106 76.5t74 89.5h-20q-70 0 -109 36.5t-39 102.5q0 72 45.5 120t114.5 48q77 0 121.5 -53.5 t44.5 -147.5q0 -115 -72.5 -215t-203.5 -166z" />
<glyph unicode="&#x2022;" horiz-adv-x="1208" d="M307 762q0 123 87 209t210 86q122 0 208.5 -86.5t86.5 -208.5t-87.5 -209.5t-209.5 -87.5q-123 0 -209 87t-86 210z" />
<glyph unicode="&#x2026;" horiz-adv-x="2048" d="M182 143q0 63 48 110.5t112 47.5q65 0 112 -46.5t47 -111.5q0 -69 -45.5 -114t-113.5 -45q-67 0 -113.5 46t-46.5 113zM864 143q0 63 48 110.5t112 47.5q65 0 112 -46.5t47 -111.5q0 -69 -45.5 -114t-113.5 -45q-67 0 -113.5 46t-46.5 113zM1548 143q0 63 48 110.5 t112 47.5q65 0 112 -46.5t47 -111.5q0 -69 -45.5 -114t-113.5 -45q-67 0 -113.5 46t-46.5 113z" />
<glyph unicode="&#x2039;" horiz-adv-x="502" d="M57 547q0 47 47.5 128.5t188.5 266.5h151l-42 -94q-111 -247 -111 -297q0 -43 28 -118t125 -273h-145q-131 158 -186.5 247t-55.5 140z" />
<glyph unicode="&#x203a;" horiz-adv-x="502" d="M57 160l38 83q116 259 116 310q0 43 -28.5 118t-125.5 273h146q131 -158 186 -247t55 -140q0 -48 -49 -132t-186 -265h-152z" />
<glyph unicode="&#x2122;" horiz-adv-x="1683" d="M233 1260l11 188h448l10 -188h-30q-8 80 -40 116.5t-93 36.5h-11v-422q0 -23 10.5 -37t28.5 -16l31 -4v-29h-260v29l32 4q19 2 28.5 15.5t9.5 37.5v422h-15q-59 0 -91 -37.5t-40 -115.5h-29zM770 905v29l33 4q20 2 30.5 15t10.5 36v373q0 23 -11 37t-30 16l-33 2v31h199 l135 -381l137 381h189v-27l-28 -2q-19 -3 -29.5 -16.5t-10.5 -36.5v-375q0 -23 10.5 -36.5t30.5 -16.5l27 -4v-29h-246v29l30 4q20 2 29.5 15.5t9.5 37.5v375l-163 -463h-27l-170 469v-381q0 -24 10 -38t29 -15l35 -4v-29h-197z" />
<glyph unicode="&#xe000;" horiz-adv-x="1105" d="M0 1105h1105v-1105h-1105v1105z" />
<glyph unicode="&#xfb01;" horiz-adv-x="1077" d="M594 0v147h16q56 0 72 15.5t16 73.5v632q0 60 -18 75t-86 15v146h368v-868q0 -59 18 -74t89 -15v-147h-475zM665 1325q0 63 46.5 109.5t109.5 46.5t109.5 -45.5t46.5 -108.5q0 -69 -44 -113.5t-112 -44.5q-65 0 -110.5 45.5t-45.5 110.5zM31 958v146h104q-1 9 -1.5 19 t-0.5 30q0 158 73 243t210 85q110 0 173.5 -50.5t63.5 -136.5q0 -59 -31.5 -94t-84.5 -35q-47 0 -75 27t-28 72q0 35 21 61.5t59 40.5q-9 10 -20 14t-31 4q-47 0 -77 -38t-30 -99q0 -30 8.5 -65.5t24.5 -77.5h156v-146h-146v-722q0 -59 17.5 -74t81.5 -15h43v-147h-502v147 q61 0 78.5 15.5t17.5 73.5v722h-104z" />
<glyph unicode="&#xfb02;" horiz-adv-x="1061" d="M586 0v147q59 0 76.5 15t17.5 74v978q0 60 -17.5 75.5t-76.5 15.5v145h360v-1214q0 -60 17 -74.5t77 -14.5v-147h-454zM31 958v146h104q-1 9 -1.5 19t-0.5 30q0 158 73 243t210 85q110 0 173.5 -50.5t63.5 -136.5q0 -59 -31.5 -94t-84.5 -35q-47 0 -75 27t-28 72 q0 35 21 61.5t59 40.5q-9 10 -20 14t-31 4q-47 0 -77 -38t-30 -99q0 -30 8.5 -65.5t24.5 -77.5h156v-146h-146v-722q0 -59 17.5 -74t81.5 -15h43v-147h-502v147q61 0 78.5 15.5t17.5 73.5v722h-104z" />
<glyph unicode="&#xfb03;" horiz-adv-x="1640" d="M1157 0v147h16q56 0 72 15.5t16 73.5v632q0 60 -18 75t-86 15v146h368v-868q0 -59 18 -74t89 -15v-147h-475zM1228 1325q0 63 46.5 109.5t109.5 46.5t109.5 -45.5t46.5 -108.5q0 -69 -44 -113.5t-112 -44.5q-65 0 -110.5 45.5t-45.5 110.5zM594 958v146h104q-1 9 -1.5 19 t-0.5 30q0 158 73 243t210 85q110 0 173.5 -50.5t63.5 -136.5q0 -59 -31.5 -94t-84.5 -35q-47 0 -75 27t-28 72q0 35 21 61.5t59 40.5q-9 10 -20 14t-31 4q-47 0 -77 -38t-30 -99q0 -30 8.5 -65.5t24.5 -77.5h156v-146h-146v-722q0 -59 17.5 -74t81.5 -15h43v-147h-502v147 q61 0 78.5 15.5t17.5 73.5v722h-104zM31 958v146h104q-1 9 -1.5 19t-0.5 30q0 158 73 243t210 85q110 0 173.5 -50.5t63.5 -136.5q0 -59 -31.5 -94t-84.5 -35q-47 0 -75 27t-28 72q0 35 21 61.5t59 40.5q-9 10 -20 14t-31 4q-47 0 -77 -38t-30 -99q0 -30 8.5 -65.5 t24.5 -77.5h156v-146h-146v-722q0 -59 17.5 -74t81.5 -15h43v-147h-502v147q61 0 78.5 15.5t17.5 73.5v722h-104z" />
<glyph unicode="&#xfb04;" horiz-adv-x="1624" d="M1149 0v147q59 0 76.5 15t17.5 74v978q0 60 -17.5 75.5t-76.5 15.5v145h360v-1214q0 -60 17 -74.5t77 -14.5v-147h-454zM594 958v146h104q-1 9 -1.5 19t-0.5 30q0 158 73 243t210 85q110 0 173.5 -50.5t63.5 -136.5q0 -59 -31.5 -94t-84.5 -35q-47 0 -75 27t-28 72 q0 35 21 61.5t59 40.5q-9 10 -20 14t-31 4q-47 0 -77 -38t-30 -99q0 -30 8.5 -65.5t24.5 -77.5h156v-146h-146v-722q0 -59 17.5 -74t81.5 -15h43v-147h-502v147q61 0 78.5 15.5t17.5 73.5v722h-104zM31 958v146h104q-1 9 -1.5 19t-0.5 30q0 158 73 243t210 85 q110 0 173.5 -50.5t63.5 -136.5q0 -59 -31.5 -94t-84.5 -35q-47 0 -75 27t-28 72q0 35 21 61.5t59 40.5q-9 10 -20 14t-31 4q-47 0 -77 -38t-30 -99q0 -30 8.5 -65.5t24.5 -77.5h156v-146h-146v-722q0 -59 17.5 -74t81.5 -15h43v-147h-502v147q61 0 78.5 15.5t17.5 73.5v722 h-104z" />
</font>
</defs>
</svg>
